<?xml version="1.0" encoding="utf-8"?>
<!-- Generator: Adobe Illustrator 16.0.0, SVG Export Plug-In . SVG Version: 6.00 Build 0)  -->
<!DOCTYPE svg PUBLIC "-//W3C//DTD SVG 1.0//EN" "http://www.w3.org/TR/2001/REC-SVG-20010904/DTD/svg10.dtd">
<svg version="1.0" id="Layer_1" xmlns="http://www.w3.org/2000/svg" xmlns:xlink="http://www.w3.org/1999/xlink" x="0px" y="0px"
	 width="800px" height="800px" viewBox="0 0 800 800" enable-background="new 0 0 800 800" xml:space="preserve">
<g>
	<path fill-rule="evenodd" clip-rule="evenodd" fill="#1D1D1B" d="M774.829,297.896c-2.589,7.028-4.332,14.311-6.499,21.465
		c-1.472,4.859-2.873,9.74-4.271,14.621c-0.438,1.531-1.067,2.242-2.859,1.615c-7.008-2.449-14.206-4.209-21.539-5.34
		c-17.266-2.66-34.074-1.666-49.874,6.671c-9.699,5.117-17.516,12.405-23.854,21.27c-10.434,14.596-16.17,31.058-19.111,48.629
		c-1.226,7.328-1.846,14.672-2.036,22.104c-0.224,8.807,0.336,17.42,3.452,25.744c3.639,9.721,10.359,16.328,20.03,20.006
		c9.139,3.475,18.688,4.283,28.297,3.754c12.939-0.713,25.587-3.127,37.631-8.16c2.675-1.119,2.991-0.887,2.994,2.037
		c0.015,11.203-0.027,22.408,0.038,33.609c0.011,1.857-0.51,2.875-2.399,3.439c-9.183,2.75-18.473,4.971-27.971,6.328
		c-7.754,1.107-15.516,1.793-23.36,2.07c-15.642,0.553-30.976-0.885-45.562-6.74c-17.614-7.07-29.963-19.484-36.304-37.6
		c-2.938-8.395-4.451-17.01-4.98-25.887c-1.23-20.68,1.521-40.848,7.27-60.666c5.112-17.623,13.067-33.882,24.076-48.554
		c9.653-12.865,21.424-23.444,35.353-31.604c12.661-7.417,26.273-12.15,40.666-14.703c11.653-2.067,23.454-2.097,35.189-1.481
		c11.879,0.622,23.637,2.56,35.124,5.833c0.157,0.044,0.333,0.023,0.5,0.033C774.829,296.892,774.829,297.394,774.829,297.896z"/>
	<path fill-rule="evenodd" clip-rule="evenodd" fill="#5AC0EE" d="M134.596,266.872c0.874-0.283,1.807-0.429,2.519-1.088
		c2.341,0,4.684,0,7.024,0c0.941,1.167,0.216,1.542-0.833,1.818c-2.461,0.65-4.987,1.083-7.326,2.142
		c-0.22,0.106-0.45,0.201-0.681,0.284c-3.173,1.157-6.181,2.642-8.917,4.645c-0.173,0.142-0.356,0.272-0.545,0.391
		c-0.55,0.359-1.078,0.753-1.574,1.188c-0.167,0.139-0.344,0.264-0.531,0.377c-1.055,0.608-1.854,1.525-2.768,2.299
		c-1.009,0.924-2.017,1.853-2.897,2.908c-0.692,0.741-1.352,1.505-1.905,2.355c-0.797,0.496-1.052,1.387-1.528,2.117
		c-0.722,0.832-1.368,1.716-1.851,2.711c-0.095,0.203-0.209,0.396-0.34,0.578c-1.094,1.602-1.965,3.314-2.59,5.153
		c-0.067,0.22-0.145,0.436-0.232,0.647c-0.869,1.78-1.462,3.65-1.864,5.59c-0.047,0.247-0.108,0.487-0.181,0.729
		c-2.296,8.047-1.978,16.026,0.601,23.946c1.385,5.935,4.418,10.987,8.09,15.785c1.44,1.882,3.511,3.298,4.346,5.641
		c-0.214,0.488-0.429,0.976-0.642,1.464c-0.938,0.764-1.732,0.219-2.36-0.403c-7.465-7.397-12.584-16.046-14.264-26.574
		c-1.127-7.064-1.234-14.198,0.545-21.044c1.994-7.667,5.566-14.737,10.91-20.802c4.108-4.664,9.27-7.935,14.4-11.228
		C130.735,267.518,132.874,267.703,134.596,266.872z"/>
	<path fill-rule="evenodd" clip-rule="evenodd" fill="#004E20" d="M125.574,534.217c-3.809-2.373-6.524-5.574-7.588-10.025
		c0.318-0.979,1.113-1.168,1.972-1.076c3.201,0.342,6.408,0.643,9.561,1.332c0.803,0.174,1.487,0.578,1.995,1.244
		c0.347,1.189,0.783,2.359,1.025,3.57c0.404,2.029-0.146,3.756-1.947,4.955C128.92,534.217,127.248,534.217,125.574,534.217z"/>
	<path fill-rule="evenodd" clip-rule="evenodd" fill="#5EC2EF" d="M135.108,269.296c1.833-1.41,4.108-1.563,6.222-2.173
		c1.012-0.294,2.134-0.344,2.81-1.34c5.017,0,10.035,0,15.052,0c2.898,1.014,6.026,1.189,8.853,2.5
		c1.479,0.685,2.972,1.298,4.109,2.519c-0.698,1.093-1.597,0.62-2.417,0.252c-5.351-2.398-11.095-3.278-16.821-3.708
		c-5.131-0.386-10.195,0.934-15.169,2.287C136.862,269.875,135.833,270.573,135.108,269.296z"/>
	<path fill-rule="evenodd" clip-rule="evenodd" fill="#1D1D1B" d="M565.602,482.303c0.293,7.621-0.914,15.861-0.477,24.129
		c0.103,1.928-0.845,2.66-2.468,3.131c-8.88,2.58-17.862,4.701-27.011,6.076c-7.909,1.189-15.848,1.844-23.858,2.115
		c-14.518,0.49-28.729-0.875-42.531-5.564c-9.79-3.328-18.479-8.566-25.63-16.006c-9.273-9.646-14.353-21.492-17.024-34.488
		c-2.082-10.129-2.44-20.387-1.906-30.627c1.058-20.324,4.916-40.113,12.575-59.059c5.596-13.847,12.946-26.71,22.517-38.167
		c10.021-11.999,21.818-21.912,35.717-29.328c12.731-6.793,26.273-10.863,40.431-13.069c10.355-1.613,20.838-1.468,31.234-0.937
		c11.292,0.577,22.476,2.412,33.458,5.311c2.188,0.578,2.511,1.493,1.923,3.45c-3.502,11.639-6.946,23.295-10.382,34.955
		c-0.445,1.512-1.182,2-2.761,1.449c-8.277-2.885-16.777-4.877-25.476-5.961c-20.769-2.587-40.097,0.867-56.71,14.386
		c-10.404,8.467-17.601,19.415-23.009,31.627c-4.892,11.046-7.933,22.608-9.749,34.493c-0.638,4.177-1.119,8.403-1.241,12.667
		c-0.103,3.66-0.675,7.314-0.428,10.984c0.512,7.564,1.229,15.059,4.231,22.197c3.742,8.9,10.146,14.947,18.999,18.383
		c10.134,3.93,20.672,4.469,31.454,3.699c10.979-0.781,21.563-3.039,31.906-6.662c0.157-0.055,0.32-0.094,0.478-0.146
		c5.737-1.941,5.737-1.941,5.737,4.043C565.602,477.473,565.602,479.563,565.602,482.303z"/>
	<path fill-rule="evenodd" clip-rule="evenodd" fill="#1D1D1B" d="M351.723,515.145c-6.27,0-12.539-0.049-18.807,0.027
		c-2.116,0.027-2.691-0.494-2.242-2.766c3.069-15.496,5.979-31.025,8.933-46.545c4.4-23.117,8.799-46.232,13.191-69.35
		c2.328-12.251,4.647-24.506,6.958-36.762c3.39-17.976,6.769-35.953,10.153-53.929c0.677-3.596,1.415-7.181,2.007-10.79
		c0.305-1.854,1.044-2.704,3.094-2.69c12.454,0.081,24.91,0.067,37.364,0.016c2.209-0.009,2.856,0.513,2.379,2.933
		c-3.636,18.437-7.111,36.904-10.624,55.365c-3.015,15.846-6.009,31.696-9.017,47.544c-3.178,16.745-6.363,33.491-9.541,50.237
		c-3.007,15.848-6.01,31.697-9.006,47.545c-1.051,5.557-2.153,11.105-3.068,16.684c-0.31,1.885-1.129,2.525-2.967,2.506
		C364.262,515.104,357.992,515.145,351.723,515.145z"/>
	<path fill-rule="evenodd" clip-rule="evenodd" fill="#0091D6" d="M257.556,320.029c-0.645,0.749-1.371,1.441-1.917,2.255
		c-1.775,2.64-2.108,5.246,0.417,7.673c0.609,2.343,0.04,4.609-0.517,6.854c-4.705,18.942-13.58,35.536-27.237,49.634
		c-13.654,14.095-29.891,23.611-48.724,28.824c-1.735,0.48-3.684,1.658-5.251-0.471c1.124-3.016,2.247-6.032,3.371-9.049
		c1.336-1.152,2.875-1.887,4.551-2.459c12.824-4.371,24.298-11.033,34.288-20.233c17.099-15.746,26.958-35.24,30.222-58.16
		c0.565-3.969,0.88-7.965,0.995-11.972c0.034-1.202,0.317-2.234,1.23-3.047c2.75-1.147,5.284-3.073,8.547-2.368
		c0.725,0.573,1.108,1.306,1.264,2.233C259.397,313.303,259.22,316.751,257.556,320.029z"/>
	<path fill-rule="evenodd" clip-rule="evenodd" fill="#0086CD" d="M265.587,353.035c1.632,3.646,2.151,7.583,2.989,11.438
		c0.122,0.563,0.275,1.119,0.415,1.678c-3.234,11.775-10.674,21.075-18.225,30.192c-9.724,11.739-21.4,21.292-34.63,28.894
		c-13.548,7.783-28.141,12.629-43.501,15.258c-1.425,0.242-2.86,0.32-3.827-1.111c0.621-2.682,1.244-5.361,1.865-8.043
		c1.01-1.646,2.747-1.842,4.396-2.154c15.908-3.023,30.508-9.207,43.849-18.329c19.714-13.477,34.004-31.382,43.179-53.4
		c0.45-1.079,0.896-2.16,1.345-3.241C263.843,353.251,264.48,352.718,265.587,353.035z"/>
	<path fill-rule="evenodd" clip-rule="evenodd" fill="#008DD3" d="M174.327,414.799c7.189-0.66,13.774-3.373,20.271-6.214
		c14.074-6.154,26.156-15.162,36.268-26.666c11.802-13.427,19.65-28.967,23.607-46.43c0.425-1.877,0.804-3.761,1.583-5.532
		c2.619,3.474,4.185,7.452,5.52,11.541c0.192,5.33-2.128,10.012-4.039,14.736c-5.641,13.95-13.886,26.261-24.507,36.888
		c-15.93,15.937-35.01,26.251-57.019,31.111c-1.31,0.289-2.842,0.941-3.691-0.9C172.491,420.369,173.569,417.623,174.327,414.799z"
		/>
	<path fill-rule="evenodd" clip-rule="evenodd" fill="#0098DD" d="M182.208,394.215c0.853-3.156,2.087-6.155,3.66-9.02
		c1.478-1.784,3.497-2.832,5.442-3.966c13.936-8.125,24.518-19.418,31.708-33.832c3.369-6.753,5.576-13.932,6.895-21.368
		c0.288-1.621,0.641-3.19,1.506-4.607c2.115-2.627,4.771-4.631,7.526-6.522c2.531,0.129,1.802,2.139,1.692,3.392
		c-0.485,5.575-1.198,11.125-2.67,16.552c-4.532,16.708-12.973,31.103-25.677,42.876c-7.785,7.213-16.586,12.958-26.503,16.862
		C184.671,395.022,183.18,396.336,182.208,394.215z"/>
	<path fill-rule="evenodd" clip-rule="evenodd" fill="#0094D9" d="M248.983,309.879c0.223,24.532-7.233,46.419-22.985,65.267
		c-12.154,14.545-27.543,24.41-45.594,30.131c-0.865,0.272-1.803,0.32-2.706,0.473c0.633-1.873,1.06-3.824,2.148-5.519
		c0.869-1.425,2.22-2.127,3.729-2.739c33.016-13.373,52.431-37.633,58.199-72.802c0.488-2.971,0.575-5.976,0.9-8.96
		c0.166-1.525,0.46-2.929,1.311-4.204C245.577,310.752,247.223,310.143,248.983,309.879z"/>
	<path fill-rule="evenodd" clip-rule="evenodd" fill="#009CE0" d="M231.418,321.423c0.669,3.413-0.483,6.633-1.249,9.836
		c-3.602,15.073-11.022,28.039-22.081,38.884c-5.571,5.463-11.846,10.019-18.723,13.713c-1.091,0.587-2.329,0.9-3.498,1.338
		c1.549-4.378,3.505-8.566,5.876-12.56c3.586-3.445,7.685-6.274,11.203-9.845c8.613-8.739,14.567-18.902,17.826-30.704
		c0.349-1.265,0.845-2.535,1.618-3.646C225.4,326.102,228.409,323.762,231.418,321.423z"/>
	<path fill-rule="evenodd" clip-rule="evenodd" fill="#008AD0" d="M265.587,353.035c-2.417,4.578-4.063,9.508-6.514,14.082
		c-19.117,35.674-48.506,57.168-88.401,64.223c0.076-1.355-0.005-2.734,0.645-3.996c0.96-1.617,2.638-1.846,4.251-2.178
		c12.559-2.59,24.322-7.256,35.283-13.856c23.873-14.375,40.378-34.819,49.816-61.007c0.283-0.786,0.532-1.585,0.908-2.333
		c0.494-0.983,1.191-1.064,2.033-0.427C264.43,349.315,265.394,351.037,265.587,353.035z"/>
	<path fill-rule="evenodd" clip-rule="evenodd" fill="#0079A8" d="M166.302,459.953c0.166-1.338,0.333-2.678,0.5-4.016
		c0.509-1.033,1.413-1.201,2.472-1.33c16.565-2.033,32.316-6.836,47.197-14.35c10.458-5.281,20.108-11.77,28.962-19.527
		c4.272-3.744,7.899-8.096,12.138-11.865c1.487-1.322,2.448-3.51,4.043-5.06c2.608-2.536,4.84-5.424,7.064-8.304
		c0.525-0.679,1.077-1.097,1.817-0.267c0.447,2.392-0.531,4.684-0.502,7.046c-0.868,3.021-2.756,5.431-4.766,7.732
		c-14.736,16.869-32.279,29.938-52.754,39.084c-12.836,5.736-26.259,9.334-40.104,11.502c-1.237,0.193-2.503,0.076-3.733,0.396
		C167.611,461.264,166.859,460.793,166.302,459.953z"/>
	<path fill-rule="evenodd" clip-rule="evenodd" fill="#0096DA" d="M243.986,311.526c0.003,22.672-7.075,42.908-21.651,60.229
		c-10.775,12.803-24.068,22.317-40.14,27.606c-0.792,0.261-1.566,0.578-2.349,0.87c0.426-2.147,1.213-4.152,2.361-6.016
		c5.414-1.122,10.137-3.822,14.755-6.661c22.442-13.793,36.076-33.741,41.084-59.542c0.831-4.286,1.978-8.65,0.897-13.111
		C240.329,313.335,242.292,312.633,243.986,311.526z"/>
	<path fill-rule="evenodd" clip-rule="evenodd" fill="#00769C" d="M165.298,466.475c0.166-1.336,0.333-2.674,0.5-4.012
		c1.041-1.455,2.724-1.48,4.208-1.662c24.276-2.943,46.462-11.408,66.615-25.201c11.019-7.543,20.907-16.359,29.493-26.621
		c0.682-0.815,1.284-2.718,3.037-1.203c-0.673,2.847-1.346,5.693-2.02,8.541c-2.375,4.809-6.527,8.082-10.329,11.578
		c-6.57,6.039-13.679,11.422-21.241,16.203c-17.775,11.24-37.002,18.65-57.741,22.158c-2.893,0.49-5.804,0.842-8.698,1.322
		C167.697,467.816,166.264,467.91,165.298,466.475z"/>
	<path fill-rule="evenodd" clip-rule="evenodd" fill="#0083C7" d="M168.808,439.383c7.026-0.129,13.695-2.152,20.335-4.094
		c18.178-5.314,34.204-14.484,48.309-27.152c12.021-10.792,21.755-23.265,28.982-37.708c0.743-1.485,1.287-3.102,2.556-4.278
		c0.335,2.007,0.668,4.014,1.003,6.02c-0.964,5.092-4.07,9.133-6.794,13.291c-11.655,17.783-26.752,31.961-45.213,42.545
		c-14.004,8.027-28.953,13.393-44.906,15.861c-1.524,0.236-3.373,1.453-4.775-0.471
		C167.981,441.998,168.891,440.752,168.808,439.383z"/>
	<path fill-rule="evenodd" clip-rule="evenodd" fill="#008AD0" d="M263.607,347.543c-1.039,0.85-1.309,2.104-1.725,3.281
		c-6.59,18.662-17.161,34.755-31.854,47.958c-16.39,14.728-35.455,24.31-57.247,28.222c-0.493,0.088-0.977,0.227-1.465,0.34
		c0.431-1.313,0.176-2.799,1.003-4.012c1.944,0.049,3.829-0.361,5.689-0.836c18.609-4.75,35.27-13.109,49.601-26.102
		c14.968-13.566,25.519-29.875,31.764-49.039c0.646-1.981,1.463-3.907,2.202-5.858C262.569,343.406,263.188,345.441,263.607,347.543
		z"/>
	<path fill-rule="evenodd" clip-rule="evenodd" fill="#008ED3" d="M40.758,327.443c2.025-3.992,4.39-7.755,7.498-11.01
		c1.828-0.576,1.685,0.849,1.749,1.843c0.248,3.835,0.822,7.624,1.447,11.41c1.574,9.539,4.504,18.636,8.785,27.297
		c0.738,1.494,1.348,3.023,1.672,4.659c-1.337,3.512-2.674,7.024-4.011,10.536c-1.577,1.385-2.218-0.06-2.874-1.037
		c-2.522-3.754-4.412-7.863-6.323-11.937c-4.064-8.664-6.726-17.777-8.309-27.208C40.132,330.447,40.218,328.926,40.758,327.443z"/>
	<path fill-rule="evenodd" clip-rule="evenodd" fill="#0081BF" d="M168.306,443.396c9.1-1.395,18.084-3.273,26.782-6.357
		c17.306-6.141,32.736-15.332,46.271-27.813c10.926-10.075,19.799-21.649,26.79-34.717c0.479-0.894,1.018-1.727,1.846-2.339
		c1.097,1.931,0.438,4.008,0.501,6.025c-3.489,9.415-10.083,16.765-16.34,24.3c-8.759,10.545-19.404,19.018-30.945,26.221
		c-12.094,7.553-25.285,12.803-39.152,16.23c-4.449,1.1-8.973,1.869-13.514,2.506c-1.23,0.172-2.462,0.236-3.241-1.045
		C167.832,445.469,167.555,444.262,168.306,443.396z"/>
	<path fill-rule="evenodd" clip-rule="evenodd" fill="#006E84" d="M263.631,431.354c-1.094,3.131-2.256,6.23-4.034,9.057
		c-11.917,11.98-26.531,19.734-41.754,26.479c-15.615,6.916-32.025,10.895-48.965,12.787c-1.352,0.15-2.699,0.189-3.583-1.158
		c0-1.338,0-2.676,0-4.012c1.679-1.346,3.833-1.035,5.684-1.236c21.436-2.34,41.412-9.082,60.17-19.561
		c10.632-5.938,20.535-12.92,29.51-21.195C261.342,431.885,262.101,430.293,263.631,431.354z"/>
	<path fill-rule="evenodd" clip-rule="evenodd" fill="#008AD0" d="M40.758,327.443c1.819,9.85,3.994,19.606,8.037,28.83
		c2.075,4.731,4.369,9.363,7.035,13.798c0.522,0.869,1.109,1.668,2.067,2.106c-1.218,3.328-2.435,6.658-3.653,9.986
		c-1.643,1.079-2.279-0.411-2.966-1.302c-1.735-2.25-3.157-4.723-4.524-7.208c-4.802-8.722-9.076-17.678-11.77-27.311
		c-0.625-2.232-1.175-4.477-0.781-6.827C36.019,335.292,37.961,331.136,40.758,327.443z"/>
	<path fill-rule="evenodd" clip-rule="evenodd" fill="#0098DC" d="M74.92,336.588c-1.708,2.983-3.414,5.966-5.122,8.948
		c-1.985,0.735-2.246-0.928-2.692-2.071c-2.658-6.801-4.199-13.877-4.968-21.126c-0.652-6.148-0.811-12.295-0.115-18.465
		c0.184-1.632,0.941-3.001,1.311-4.525c3.313-3.212,6.799-6.221,10.566-8.896c1.667,0.833,1.066,2.264,0.828,3.5
		c-1.31,6.792-2.313,13.606-2.096,20.557c0.185,5.927,1.005,11.758,2.389,17.517C75.386,333.556,75.787,335.086,74.92,336.588z"/>
	<path fill-rule="evenodd" clip-rule="evenodd" fill="#009CE0" d="M74.92,336.588c-4.24-13.836-4.669-27.819-1.639-41.942
		c0.296-1.378,0.416-2.794,0.618-4.192c3.812-3.01,7.725-5.874,12.02-8.174c1.011,0.819,0.249,1.591-0.052,2.386
		c-1.843,4.867-3.704,9.758-4.422,14.922c-0.853,6.128-1.839,12.232-0.888,18.529c0.54,3.576,0.828,7.179,1.702,10.713
		c0.152,0.619,0.498,1.603-0.315,2.24C79.153,332.336,77.132,334.584,74.92,336.588z"/>
	<path fill-rule="evenodd" clip-rule="evenodd" fill="#0092D7" d="M61.908,361.641c-2.469-1.988-3.351-4.972-4.548-7.675
		c-4.949-11.177-7.799-22.894-8.581-35.108c-0.053-0.817-0.344-1.617-0.524-2.425c2.281-3.987,5.439-7.264,8.562-10.569
		c1.67,0.545,1.254,2.004,1.237,3.144c-0.108,6.863,0.262,13.684,1.554,20.437c1.196,6.249,2.854,12.367,5.284,18.257
		c0.658,1.593,1.211,3.181,1.001,4.938C64.564,355.639,63.237,358.64,61.908,361.641z"/>
	<path fill-rule="evenodd" clip-rule="evenodd" fill="#0086CC" d="M34.204,339.516c0.888,1.27,1.103,2.776,1.478,4.224
		c3.36,12.969,9.161,24.828,16.377,36.042c0.591,0.919,1.291,1.741,2.186,2.382c-0.956,3.194-1.914,6.388-2.87,9.582
		c-1.112,1.194-1.829,0.45-2.606-0.466c-3.243-3.828-5.94-8.039-8.469-12.342c-3.672-6.251-6.872-12.743-9.579-19.485
		c-0.834-2.082-0.98-4.226-1.397-6.351C30.217,348.309,31.795,343.764,34.204,339.516z"/>
	<path fill-rule="evenodd" clip-rule="evenodd" fill="#006C7C" d="M165.295,478.518c11.24-0.635,22.221-2.813,32.987-5.963
		c21.427-6.271,40.892-16.387,58.293-30.412c0.917-0.74,1.864-1.418,3.022-1.732c-1.225,3.018-2.908,5.783-4.653,8.516
		c-5.926,6.334-13.504,10.303-20.945,14.4c-17.052,9.389-35.225,15.623-54.451,18.74c-3.789,0.613-7.599,1.088-11.409,1.564
		c-1.171,0.146-2.157-0.059-2.844-1.1C165.295,481.195,165.295,479.855,165.295,478.518z"/>
	<path fill-rule="evenodd" clip-rule="evenodd" fill="#0086CD" d="M97.395,415.801c-0.474,3.154-0.953,6.309-1.42,9.465
		c-0.106,0.711,0.205,1.508-0.447,2.104c-0.692,0.826-1.473,0.896-2.437,0.432c-9.377-4.525-17.868-10.377-25.698-17.206
		c-0.644-0.563-0.92-1.462-1.082-2.335c0.587-4.131,1.933-8.061,3.152-12.023c0.965-0.824,1.792-0.534,2.633,0.252
		c7.103,6.625,14.887,12.326,23.33,17.123C96.348,414.135,96.791,415.025,97.395,415.801z"/>
	<path fill-rule="evenodd" clip-rule="evenodd" fill="#82CFF3" d="M170.756,281.392c-0.872,1.253-2.107,1.997-3.511,2.507
		c-1.476,0.442-2.734-0.284-4.056-0.727c-12.814-4.303-24.306-2.065-33.855,7.589c-10.111,10.224-11.792,25.85-4.14,38.292
		c0.975,1.585,2.216,3.04,2.445,4.991c-0.669,1.17-1.338,2.342-2.007,3.513c-1.003,0.971-1.705,0.506-2.466-0.401
		c-4.456-5.31-7.3-11.31-8.564-18.176c-2.07-11.234,0.932-21.13,7.707-29.955c5.547-7.226,13.017-11.637,21.972-13.432
		c8.527-1.71,16.751-0.885,24.542,3.146C169.851,279.271,171.389,279.584,170.756,281.392z"/>
	<path fill-rule="evenodd" clip-rule="evenodd" fill="#008ED3" d="M118.634,420.318c0.24-3.758,1.331-7.361,2.006-11.039
		c1.057-0.994,2.251-0.809,3.499-0.459c6.04,1.692,12.184,2.807,18.424,3.465c3.003,0.316,6.002,0.171,9,0.288
		c1.197,0.048,2.403,0.079,2.527,1.71c-0.327,3.793-1.493,7.395-2.509,11.031c-2.232,1.381-4.722,0.855-7.054,0.697
		c-7.468-0.514-14.868-1.594-22.081-3.668C121.072,421.949,119.417,421.902,118.634,420.318z"/>
	<path fill-rule="evenodd" clip-rule="evenodd" fill="#008CD2" d="M97.395,415.801c-7.857-3.482-14.623-8.607-21.23-13.994
		c-2.252-1.835-4.099-4.16-6.702-5.57c1.202-3.83,2.749-7.555,3.513-11.52c1.222-0.691,2.174-0.311,3.085,0.656
		c6.437,6.835,13.749,12.592,21.711,17.538c0.903,0.563,1.557,1.234,1.629,2.342C98.761,408.773,97.688,412.213,97.395,415.801z"/>
	<path fill-rule="evenodd" clip-rule="evenodd" fill="#0093D8" d="M154.09,414.283c-0.98-0.159-1.965-0.477-2.941-0.453
		c-9.928,0.25-19.572-1.393-29.042-4.247c-0.475-0.144-0.977-0.204-1.467-0.304c0.837-3.344,1.673-6.688,2.509-10.032
		c0.955-1.07,2.146-0.775,3.257-0.458c9.115,2.607,18.39,3.996,27.888,3.741c1.126-0.03,2.141,0.206,2.806,1.231
		C156.098,407.269,155.094,410.775,154.09,414.283z"/>
	<path fill-rule="evenodd" clip-rule="evenodd" fill="#006975" d="M165.295,482.531c18.427-1.67,36.256-5.781,53.27-13.148
		c11.679-5.059,22.782-11.156,33.101-18.643c1.002-0.729,2.182-1.215,3.278-1.814c-1.397,2.848-3.179,5.455-5.016,8.029
		c-10.832,9.439-23.841,14.889-37.003,19.977c-14.258,5.512-29.086,8.725-44.29,10.23c-1.304,0.131-2.518,0.129-3.34-1.117
		C165.295,484.873,165.295,483.703,165.295,482.531z"/>
	<path fill-rule="evenodd" clip-rule="evenodd" fill="#0098DC" d="M79.388,365.077c0.89-3.68,2.654-7.015,4.124-10.465
		c1.304-0.663,1.974,0.126,2.634,1.09c2.446,3.574,5.153,6.934,8.005,10.2c3.366,3.855,7.345,6.977,11.317,10.125
		c0.935,0.741,1.749,1.506,2.104,2.67c-0.75,3.27-1.873,6.417-3.154,9.509c-1.06,1.246-2.07,0.545-3.078-0.081
		c-3.833-2.381-7.284-5.27-10.622-8.27c-3.713-3.335-7.165-6.942-10.168-10.964C79.665,367.703,79.153,366.539,79.388,365.077z"/>
	<path fill-rule="evenodd" clip-rule="evenodd" fill="#007DB4" d="M166.804,453.412c-0.001-0.996-0.002-1.992-0.002-2.988
		c1.513-1.186,3.396-0.879,5.104-1.162c5.906-0.98,11.734-2.158,17.507-3.848c6.889-2.018,13.592-4.398,20.133-7.334
		c7.759-3.484,15.06-7.756,21.987-12.639c9.866-6.951,18.724-15.051,26.4-24.386c3.399-4.134,6.719-8.333,9.607-12.866
		c0.555-0.87,1.036-2.761,2.954-1.969c0,1.339,0,2.678,0,4.017c-1.812,5.103-5.713,8.796-8.849,12.995
		c-1.279,1.712-2.832,3.238-4.089,4.994c-3.195,3.865-6.92,7.145-10.672,10.475c-5.576,4.949-11.449,9.42-17.683,13.436
		c-17.735,11.422-37.045,18.664-57.976,21.465C169.787,453.793,168.25,454.07,166.804,453.412z"/>
	<path fill-rule="evenodd" clip-rule="evenodd" fill="#0077A2" d="M269.151,407.775c-2.122,1.541-3.612,3.7-5.323,5.617
		c-16.826,18.854-37.314,32.236-60.939,40.928c-11.104,4.084-22.599,6.604-34.341,7.998c-0.91,0.107-1.833,0.1-2.75,0.145
		c-0.219-0.914,0.347-1.67,0.504-2.51c15.575-1.584,30.552-5.432,44.921-11.689c13.825-6.018,26.331-14.092,37.81-23.822
		c7.292-6.182,13.656-13.236,19.647-20.648c0.419-0.52,0.874-1.009,1.313-1.512C270.219,404.19,269.599,405.97,269.151,407.775z"/>
	<path fill-rule="evenodd" clip-rule="evenodd" fill="#0089CF" d="M118.634,420.318c0.983,0.148,1.994,0.195,2.947,0.457
		c8.943,2.447,18.029,3.9,27.31,4.092c0.899,0.02,1.794,0.293,2.69,0.447c-0.283,2.941-1.25,5.723-2.006,8.551
		c-0.717,1.049-1.798,1.25-2.952,1.229c-9.442-0.191-18.688-1.625-27.735-4.342c-0.995-0.299-1.786-0.768-1.9-1.924
		C117.336,425.953,117.725,423.086,118.634,420.318z"/>
	<path fill-rule="evenodd" clip-rule="evenodd" fill="#82CFF3" d="M143.22,348.068c0.546-1.217,0.975-2.496,1.866-3.53
		c1.362-1.232,3.037-0.79,4.548-0.673c13.166,1.023,25.757-6.347,31.138-18.82c3.725-8.635,3.377-17.221-0.291-25.775
		c-0.536-1.251-1.34-2.466-0.741-3.937c0.827-0.828,1.654-1.655,2.48-2.483c1.639-0.575,2.375,0.706,2.932,1.713
		c2.858,5.18,4.387,10.785,4.644,16.678c0.464,10.651-3.534,19.832-10.532,27.462c-5.631,6.14-12.941,9.891-21.364,11.115
		c-3.996,0.58-7.97,0.6-11.965,0.003C144.715,349.64,143.689,349.33,143.22,348.068z"/>
	<path fill-rule="evenodd" clip-rule="evenodd" fill="#0095DA" d="M65.893,352.64c-4.01-7.052-5.886-14.819-7.545-22.649
		c-1.687-7.963-1.578-16.049-1.531-24.127c2.032-2.31,4.198-4.489,6.516-6.515c0.637,1.91,0.106,3.834-0.078,5.712
		c-1.275,13.042,0.677,25.636,5.021,37.925c0.337,0.956,0.737,1.867,1.522,2.55C68.821,348.083,67.27,350.313,65.893,352.64z"/>
	<path fill-rule="evenodd" clip-rule="evenodd" fill="#0094D9" d="M79.388,365.077c6.082,8.92,13.887,16.061,22.792,22.059
		c0.679,0.458,1.49,0.717,2.239,1.07c-0.836,2.844-1.672,5.687-2.509,8.53c-0.933,1.122-1.896,0.673-2.867,0.06
		c-8.21-5.187-15.596-11.332-21.884-18.763c-0.731-0.865-1.3-1.805-1.673-2.868C76.008,371.5,77.469,368.2,79.388,365.077z"/>
	<path fill-rule="evenodd" clip-rule="evenodd" fill="#007FBB" d="M167.303,446.408c7.144-0.311,14.076-1.873,20.912-3.795
		c17.666-4.967,33.655-13.174,48.081-24.602c13.276-10.517,23.776-23.3,32.464-37.704c0.481-0.795,0.981-1.55,1.734-2.112
		c0,1.665,0,3.331,0,4.996c-6.533,11.666-15.155,21.661-24.792,30.817c-7.16,6.804-15.142,12.595-23.6,17.62
		c-6.303,3.746-12.953,6.895-19.861,9.529c-9.148,3.488-18.462,6.215-28.12,7.744c-1.808,0.287-3.607,0.727-5.503,0.609
		c-0.749-0.047-1.324-0.021-1.817-0.596C166.968,448.082,167.135,447.244,167.303,446.408z"/>
	<path fill-rule="evenodd" clip-rule="evenodd" fill="#90D3F4" d="M164.233,286.414c-0.537,0.921-0.92,1.964-1.974,2.473
		c-1.718,0.946-3.446,0.299-5.137-0.043c-8.393-1.7-15.783,0.403-21.998,6.15c-7.408,6.848-9.505,18.249-5.321,27.468
		c0.738,1.625,1.518,3.223,1.71,5.027c-0.9,1.126-1.136,2.696-2.401,3.576c-1.87,0.274-2.717-1.139-3.481-2.354
		c-7.808-12.389-5.669-25.613,2.965-36.198c6.477-7.939,15.299-11.25,25.471-10.886c3.268,0.116,6.365,1.22,9.418,2.323
		C164.675,284.378,165.306,285.192,164.233,286.414z"/>
	<path fill-rule="evenodd" clip-rule="evenodd" fill="#79CBF2" d="M170.756,281.392c-5.698-3.633-11.841-5.201-18.679-5.196
		c-8.1,0.006-15.362,2.169-21.744,6.897c-8.166,6.05-13.116,14.168-14.61,24.379c-1.402,9.572,0.972,18.143,6.208,26.069
		c1.007,1.523,2.116,3.001,3.7,4.016c-0.249,1.146-0.812,2.135-1.537,3.042c-1.312,0.107-1.964-0.857-2.645-1.696
		c-4.874-6.004-7.761-12.821-9.495-20.399c-1.466-6.416-0.225-12.361,1.72-18.144c5.076-15.1,15.522-24.444,31.271-27.715
		c8.83-1.835,17.058,0.02,25.039,3.696c1.289,0.594,2.53,1.317,2.671,2.981C172.318,280.282,171.519,280.821,170.756,281.392z"/>
	<path fill-rule="evenodd" clip-rule="evenodd" fill="#007395" d="M165.298,466.475c10.977-0.658,21.648-2.951,32.131-6.15
		c20.316-6.199,38.504-16.322,54.74-29.982c4.281-3.604,8.236-7.555,12.163-11.535c0.875-0.887,1.863-1.662,2.799-2.49
		c-0.105,1.723-0.359,3.414-1.01,5.027c-5.951,7.861-13.672,13.852-21.513,19.57c-7.773,5.67-16.107,10.533-24.86,14.648
		c-14.769,6.945-30.231,11.514-46.358,13.809c-1.855,0.264-3.731,0.813-5.745,0.561c-0.998-0.125-1.729-0.191-2.349-0.945
		C165.296,468.15,165.297,467.313,165.298,466.475z"/>
	<path fill-rule="evenodd" clip-rule="evenodd" fill="#00676E" d="M165.294,486.045c12.219-0.83,24.176-3.094,35.914-6.563
		c16.212-4.791,31.432-11.727,45.571-21.018c0.965-0.633,2.096-1.012,3.149-1.51c-1.543,2.691-3.497,5.094-5.387,7.537
		c-12.983,9.623-27.957,14.904-43.129,19.734c-9.022,2.873-18.332,4.377-27.692,5.596c-1.901,0.248-3.788,0.586-5.725,0.525
		c-0.856-0.025-1.679,0.066-2.198-0.797C165.098,488.457,165.203,487.25,165.294,486.045z"/>
	<path fill-rule="evenodd" clip-rule="evenodd" fill="#0090D5" d="M75.485,375.164c1.395,0.506,2.269,1.621,3.195,2.691
		c6.237,7.222,13.557,13.162,21.628,18.206c0.485,0.304,1.065,0.453,1.602,0.674c-0.678,2.886-1.448,5.745-2.509,8.517
		c-7.331-4.139-14.095-9.037-20.141-14.918c-2.013-1.958-3.721-4.27-6.284-5.617C73.849,381.542,74.188,378.228,75.485,375.164z"/>
	<path fill-rule="evenodd" clip-rule="evenodd" fill="#89D1F4" d="M164.233,286.414c-0.479-0.988-1.375-1.383-2.343-1.733
		c-17.011-6.143-34.644,4.448-38.73,21.166c-2.35,9.618-0.052,17.762,5.953,25.218c-0.204,1.135-0.782,2.085-1.473,2.98
		c-4.53-4.22-6.812-9.621-7.888-15.552c-4.504-24.842,19.186-45.09,43.066-36.859c1.582,0.545,3.13,1.162,4.428,2.266
		C166.364,284.883,165.716,286.15,164.233,286.414z"/>
	<path fill-rule="evenodd" clip-rule="evenodd" fill="#72C9F1" d="M172.656,279.322c-5.265-3.517-11.266-5.564-17.362-6.023
		c-10.864-0.818-20.784,2.475-29.114,9.737c-6.983,6.088-11.061,13.814-12.945,22.896c-2.423,11.684,1.435,21.6,7.954,30.897
		c0.91,1.298,1.936,2.515,2.907,3.769c0.016,0.735-0.39,1.189-1.003,1.505c-1.909-0.494-3.169-1.591-4.196-3.375
		c-1.529-2.657-3.375-5.135-4.888-7.82c-1.825-3.237-2.643-6.849-3.976-10.268c-0.155-0.396-0.121-0.828-0.134-1.239
		c-0.069-2.138,0.601-4.294-0.558-6.407c-0.373-0.677-0.263-1.827,0.404-2.612c0.276-0.324,0.452-0.667,0.471-1.099
		c0.33-7.597,2.586-14.557,7.062-20.718c1.362-1.876,3.193-3.42,3.738-5.818c4.091-3.147,7.917-6.614,12.755-8.733
		c5.094-2.232,10.291-3.766,15.866-3.979c6.531-0.251,12.879,0.521,18.854,3.328c1.92,0.902,4.211,1.3,5.308,3.479
		C173.419,277.67,173.038,278.496,172.656,279.322z"/>
	<path fill-rule="evenodd" clip-rule="evenodd" fill="#009DE1" d="M107.572,378.696c-5.226-2.727-9.382-6.793-13.47-10.912
		c-3.983-4.015-7.058-8.783-10.591-13.173c1.272-2.971,2.42-6.004,4.411-8.606c1.237,0.296,1.565,1.533,2.028,2.371
		c4.657,8.443,11.073,15.304,18.613,21.196c0.708,0.553,1.415,1.11,1.513,2.103C109.686,374.173,108.491,376.386,107.572,378.696z"
		/>
	<path fill-rule="evenodd" clip-rule="evenodd" fill="#007291" d="M165.296,468.986c11.091-0.525,21.849-2.93,32.417-6.115
		c12.678-3.824,24.79-9.061,36.049-16.076c10.439-6.504,20.239-13.865,28.832-22.738c1.036-1.068,1.973-2.305,3.528-2.713
		c-0.214,1.006-0.428,2.012-0.642,3.018c-1.486,3.205-4.156,5.447-6.695,7.68c-9.604,8.443-20.009,15.73-31.319,21.785
		c-15.466,8.279-31.83,13.789-49.071,16.781c-3.622,0.629-7.274,1.113-10.942,1.443c-0.824,0.074-1.592,0.232-2.158-0.557
		C165.295,470.658,165.295,469.822,165.296,468.986z"/>
	<path fill-rule="evenodd" clip-rule="evenodd" fill="#7ACCF2" d="M143.22,348.068c8.596,1.736,17.01,1.16,24.88-2.808
		c10.975-5.531,17.409-14.646,19.83-26.629c1.431-7.087,0.159-13.878-2.452-20.495c-0.771-1.953-1.74-3.791-3.257-5.287
		c0.668-0.668,1.337-1.338,2.006-2.007c1.01-0.355,1.631,0.119,2.123,0.953c3.818,6.486,5.974,13.488,5.78,21.014
		c-0.397,15.329-7.39,26.952-20.507,34.776c-6.883,4.105-14.498,5.524-22.478,5.008c-2.077-0.134-4.148-0.146-6.118-1.082
		c-0.536-0.254-0.667-0.61-0.956-0.952C142.454,349.729,142.836,348.899,143.22,348.068z"/>
	<path fill-rule="evenodd" clip-rule="evenodd" fill="#65C4EF" d="M187.301,287.944c0.481-0.372,0.961-0.743,1.442-1.115
		c1.484-0.609,2.123,0.452,2.713,1.447c5.913,9.973,7.979,20.662,6.25,32.165c-1.195,7.943-5.371,14.279-10.005,20.526
		c-3.591,4.84-7.94,8.596-13.135,11.609c-7.451,4.322-15.437,6.041-23.948,5.901c-3.014-0.049-5.993-0.304-8.918-1.006
		c-0.815-0.197-1.845-0.292-2.135-1.392c0.132-0.771,0.436-1.456,1.003-2.008c0.713-0.839,1.708-0.674,2.54-0.494
		c13.064,2.808,24.832-0.054,35.162-8.376c12.078-9.731,16.865-22.661,15.499-37.898c-0.55-6.141-3.149-11.736-6.064-17.107
		C187.254,289.364,187.065,288.766,187.301,287.944z"/>
	<path fill-rule="evenodd" clip-rule="evenodd" fill="#0097DC" d="M157.101,403.762c-11.589,0.538-22.896-1.037-33.952-4.514
		c0.557-2.378,0.605-4.892,1.896-7.074c0.925-0.483,1.854-0.428,2.842-0.144c9.056,2.608,18.275,3.906,27.72,3.492
		c1.257-0.055,2.751-0.376,3.501,1.215C158.438,399.078,157.77,401.42,157.101,403.762z"/>
	<path fill-rule="evenodd" clip-rule="evenodd" fill="#66C4EF" d="M174.663,273.312c0.248,0.769-0.534,1.276-0.502,1.989
		c-1.054,0.727-2.045-0.082-2.739-0.479c-6.257-3.583-12.994-4.545-20.107-4.596c-9.812-0.069-18.381,2.992-25.876,9.133
		c-3.497,2.865-6.68,5.971-8.97,10.102c-1.835,3.308-4.064,6.396-5.149,10.065c-1.636,5.528-2.704,11.242-1.934,16.944
		c0.908,6.724,2.886,13.178,6.857,18.932c1.98,2.869,4.061,5.688,5.875,8.677c-0.133,0.785-0.444,1.48-1.033,2.034
		c-2.678-0.917-3.807-3.434-5.405-5.404c-5.194-6.399-8.261-13.827-9.309-21.931c-1.545-11.944,1.092-22.98,8.203-32.837
		c4.147-5.749,9.155-10.627,15.51-13.769c8.182-4.043,16.868-5.997,26.102-5.065c5.373,0.543,10.436,2.055,15.37,4.142
		C172.731,271.747,173.754,272.433,174.663,273.312z"/>
	<path fill-rule="evenodd" clip-rule="evenodd" fill="#00625F" d="M166.169,498.117c-0.708-1.293-0.393-2.682-0.376-4.041
		c0.599-0.857,1.503-1.055,2.458-1.127c12.577-0.961,24.819-3.582,36.854-7.297c9.439-2.912,18.587-6.531,27.476-10.84
		c0.729-0.354,2.155-2.066,2.909,0.234c-2.189,2.482-4.527,4.816-7.008,7.006c-12.425,7.572-26.366,10.738-40.332,13.785
		c-6.368,1.389-12.831,2.227-19.341,2.656C167.891,498.555,166.979,498.752,166.169,498.117z"/>
	<path fill-rule="evenodd" clip-rule="evenodd" fill="#0086CC" d="M116.988,428.828c10.605,3.342,21.463,5.047,32.587,5.037
		c-0.31,2.383-0.599,4.77-1.505,7.023c-1.605,1.91-3.825,1.082-5.649,0.926c-8.438-0.715-16.817-1.863-24.942-4.473
		c-0.997-0.32-1.419-0.744-1.855-1.467C115.981,433.508,116.238,431.121,116.988,428.828z"/>
	<path fill-rule="evenodd" clip-rule="evenodd" fill="#006568" d="M165.796,489.551c5.611-0.797,11.234-1.525,16.833-2.402
		c15.526-2.432,30.254-7.459,44.478-14.016c4.996-2.305,9.912-4.801,14.626-7.66c0.871-0.529,1.783-0.902,2.807-0.98
		c-1.523,2.133-3.148,4.18-5.018,6.021c-11.631,7.922-24.851,12.186-38.102,16.264c-10.349,3.184-21.013,5.049-31.792,6.109
		c-1.221,0.119-2.85,0.756-3.834-0.82C165.796,491.227,165.796,490.389,165.796,489.551z"/>
	<path fill-rule="evenodd" clip-rule="evenodd" fill="#3BB4EA" d="M111.515,271.387c1.602-0.773,3.255-1.386,5.021-1.662
		c1.005,1.233-0.272,1.894-0.843,2.391c-4.4,3.828-8.004,8.318-10.897,13.328c-4.18,7.238-6.537,15.075-7.067,23.452
		c-0.79,12.459,2.314,23.809,9.292,34.176c2.53,3.76,5.556,7.046,8.693,10.252c0.539,0.551,1.047,1.016,1.25,1.758
		c0.109,0.849-0.338,1.461-0.863,2.043c-0.85,0.851-1.483,0.281-2.124-0.316c-5.052-4.715-9.542-9.869-12.946-15.939
		c-5.795-10.331-8.098-21.474-7.227-33.163c0.627-8.42,3.032-16.514,7.333-23.843c2.076-3.536,4.501-6.91,7.159-10.079
		C109.183,272.725,110.431,272.17,111.515,271.387z"/>
	<path fill-rule="evenodd" clip-rule="evenodd" fill="#99D7F5" d="M131.513,327.488c-2.857-2.953-4.109-6.664-4.744-10.576
		c-2.524-15.585,8.398-29.135,24.191-29.994c3.882-0.211,7.637,0.714,11.299,1.968c-0.882,0.996-1.765,1.993-2.648,2.99
		c-1.508,1.038-3.126,0.458-4.66,0.201c-5.492-0.917-10.432,0.498-14.913,3.558c-7.91,5.401-10.888,15.536-7.352,24.594
		c0.548,1.405,1.248,2.78,0.436,4.315C132.967,325.735,131.912,326.433,131.513,327.488z"/>
	<path fill-rule="evenodd" clip-rule="evenodd" fill="#009DE0" d="M127.053,386.652c0.337-1.948,1.163-3.721,1.981-5.495
		c1.884-1.005,3.67,0.101,5.321,0.562c4.3,1.202,8.669,1.579,13.065,2.085c4.839,0.556,9.561-0.134,14.328-0.493
		c0.915-0.07,1.854-0.129,2.378,0.884c-0.836,2.174-1.673,4.347-2.51,6.52c-0.869,0.532-1.685,1.146-2.787,1.177
		c-9.834,0.296-19.648,0.411-29.142-2.813C128.46,388.662,127.035,388.434,127.053,386.652z"/>
	<path fill-rule="evenodd" clip-rule="evenodd" fill="#89D1F4" d="M179.74,295.333c6.825,10.803,6.473,25.288-0.557,35.502
		c-7.924,11.513-21.717,16.494-34.098,13.703c0.381-0.831,0.763-1.661,1.145-2.491c0.93-0.578,1.745-1.037,3.042-0.932
		c11.063,0.902,22.017-4.535,27.647-14.751c4.53-8.218,4.93-16.703,1.135-25.359c-0.49-1.118-1.282-2.355-0.32-3.667
		C178.403,296.67,179.072,296.001,179.74,295.333z"/>
	<path fill-rule="evenodd" clip-rule="evenodd" fill="#009ADE" d="M127.053,386.652c6.234,2.657,12.815,3.751,19.519,4.023
		c5.007,0.203,10.029,0.041,15.044,0.04c-0.836,2.007-1.672,4.015-2.508,6.021c-10.089,0.282-20.122,0.003-29.89-2.971
		c-1.431-0.436-2.903-0.744-4.174-1.592C125.236,390.16,126.189,388.422,127.053,386.652z"/>
	<path fill-rule="evenodd" clip-rule="evenodd" fill="#007EB7" d="M166.801,448.916c8.722-0.537,17.15-2.566,25.468-5.1
		c17.389-5.295,33.11-13.768,47.092-25.344c11.385-9.429,21.082-20.413,28.971-32.949c0.576-0.917,1.039-1.928,2.163-2.333
		c0,1.01,0,2.02,0,3.03c-1.119,0.787-1.85,1.906-2.61,3.01c-5.458,7.921-11.368,15.492-18.296,22.178
		c-10.383,10.019-21.844,18.56-34.807,25.056c-13.931,6.98-28.485,11.832-43.988,13.689c-1.322,0.158-2.661,0.184-3.992,0.27
		C166.801,449.922,166.801,449.42,166.801,448.916z"/>
	<path fill-rule="evenodd" clip-rule="evenodd" fill="#006057" d="M166.169,498.117c3.766-1.672,7.865-1.293,11.805-1.863
		c16.469-2.389,32.359-6.77,47.629-13.4c0.904-0.393,1.918-0.539,2.879-0.801c-2.832,2.947-5.866,5.637-9.532,7.527
		c-15.708,7.67-32.632,10.447-49.772,12.354c-1.091,0.123-2.18,0.334-2.882-0.836C166.253,500.104,166.211,499.111,166.169,498.117z
		"/>
	<path fill-rule="evenodd" clip-rule="evenodd" fill="#5FC2EF" d="M139.564,356.079c16.166,4.002,30.722,0.832,43.135-10.347
		c7.958-7.166,12.509-16.383,14.043-27.015c1.475-10.212-0.6-19.746-5.624-28.694c-0.656-1.167-1.306-2.336-2.375-3.194
		c0.505-0.721,0.991-1.469,2.009-1.508c1.39-0.535,2.022,0.47,2.576,1.382c4.41,7.264,7.147,15.064,7.235,23.643
		c0.03,2.914,0.103,5.827-0.218,8.751c-0.469,4.291-1.908,8.205-3.97,11.938c-5.287,4.988-9.081,11.131-13.185,17.034
		c-6.077,6.202-13.681,9.351-21.99,11.252c-4.764,1.09-9.616,0.994-14.357,0.823c-2.629-0.094-5.905-0.218-8.141-2.54
		C138.99,357.095,139.277,356.586,139.564,356.079z"/>
	<path fill-rule="evenodd" clip-rule="evenodd" fill="#72C9F1" d="M142.071,350.561c8.724,1.886,17.364,1.671,25.533-2.099
		c13.472-6.218,21.297-16.786,23.217-31.591c1.105-8.518-0.779-16.417-4.952-23.843c-0.453-0.806-0.893-1.608-1.642-2.186
		c0.501-0.501,1.003-1.003,1.506-1.505c1.279-0.313,1.657,0.648,2.147,1.49c7.041,12.107,8.345,24.721,2.82,37.687
		c-6.781,15.907-19.118,24.394-36.217,25.987c-4.155,0.387-8.349,0.222-12.39-1.189c-0.465-0.163-0.609-0.464-0.883-0.726
		C141.1,351.742,141.545,351.134,142.071,350.561z"/>
	<path fill-rule="evenodd" clip-rule="evenodd" fill="#00708B" d="M165.295,471.494c10.479-1.164,20.853-2.865,30.986-5.867
		c22.187-6.57,42.136-17.229,59.7-32.355c3.302-2.844,6.15-6.137,9.498-8.91c0.037,1.244-0.352,2.383-0.854,3.494
		c-3.04,5.023-7.893,8.184-12.318,11.717c-17.449,13.924-37.097,23.617-58.585,29.488c-8.108,2.217-16.397,3.781-24.806,4.516
		c-1.232,0.107-2.569,0.594-3.619-0.574C165.296,472.5,165.295,471.996,165.295,471.494z"/>
	<path fill-rule="evenodd" clip-rule="evenodd" fill="#53BDED" d="M134.596,266.872c-2.881,1.797-5.998,3.14-8.861,5.016
		c-9.405,6.158-16.022,14.297-19.601,25.054c-1.829,5.497-2.013,11.017-2.241,16.685c-0.254,6.327,0.721,12.282,3.32,17.974
		c3,6.57,6.598,12.74,12.759,16.953c0.114,0.854-0.337,1.47-0.869,2.053c-0.774,0.492-1.334-0.023-1.816-0.477
		c-8.036-7.558-13.392-16.584-15.515-27.528c-0.879-4.531-1.4-9.084-1.008-13.613c0.595-6.878,2.462-13.458,5.577-19.719
		c1.902-3.823,4.567-7.04,6.97-10.469c4.596-4.715,9.333-9.236,15.762-11.428C130.914,267.206,132.755,267.039,134.596,266.872z"/>
	<path fill-rule="evenodd" clip-rule="evenodd" fill="#24ABE6" d="M98.962,276.262c1.153-1.037,2.739-1.134,4.033-1.866
		c1.257,1.022-0.004,1.922-0.407,2.442c-5.522,7.139-8.884,15.283-10.514,24.021c-3.136,16.8,0.13,32.434,9.812,46.576
		c3.012,4.399,6.542,8.403,10.834,11.681c0.699,0.533,1.75,1.265,1.34,2.554c0.037,0.721-0.14,1.372-0.61,1.931
		c-1.047,0.606-1.945,0.246-2.779-0.442c-7.451-6.148-13.244-13.608-17.57-22.224c-0.619-1.232-0.683-2.581-0.697-3.929
		c0.357-1.759-0.138-3.235-1.471-4.433c-2.177-5.278-2.926-10.845-3.225-16.479c-0.521-9.789,0.931-19.268,4.742-28.34
		C94.167,283.67,96.131,279.719,98.962,276.262z"/>
	<path fill-rule="evenodd" clip-rule="evenodd" fill="#00708B" d="M165.297,473.002c11.835-0.701,23.347-3.172,34.629-6.668
		c20.62-6.391,39.153-16.676,55.735-30.475c3.077-2.561,5.98-5.33,8.963-8.004c-0.332,1.166-0.663,2.332-0.995,3.498
		c-4.534,3.676-8.964,7.49-13.621,11.006c-23.954,18.08-50.913,28.652-80.712,32.025c-1.322,0.15-2.668,0.084-4.002,0.121
		C165.295,474.004,165.296,473.504,165.297,473.002z"/>
	<path fill-rule="evenodd" clip-rule="evenodd" fill="#6CC7F1" d="M141.211,352.585c6.044,1.062,12.098,1.504,18.2,0.474
		c17.648-2.981,31.81-18.463,33.465-36.246c0.941-10.098-1.354-19.204-7.144-27.477c0.404-0.597,0.796-1.208,1.567-1.393
		c5.54,8.535,8.316,17.908,7.487,28.042c-0.766,9.365-4.231,17.78-10.583,24.898c-7.771,8.708-17.661,13.23-29.038,14.731
		c-4.946,0.653-9.77-0.662-14.599-1.545C140.782,353.576,140.997,353.081,141.211,352.585z"/>
	<path fill-rule="evenodd" clip-rule="evenodd" fill="#42B7EA" d="M116.962,355.081c-5.613-3.909-9.567-9.269-12.947-15.071
		c-4.854-8.331-7.454-17.437-7.383-27.014c0.105-14.084,4.538-26.738,14.235-37.268c1.865-2.025,4.062-3.735,5.668-6.004
		c1.661-0.476,3.195-1.426,5.006-1.349c0.28,1.115-0.601,1.441-1.271,1.976c-6.488,5.192-11.876,11.336-15.508,18.84
		c-9.981,20.632-5.894,42.908,8.148,58.798c1.616,1.828,3.957,3.056,4.692,5.622C117.39,354.102,117.175,354.592,116.962,355.081z"
		/>
	<path fill-rule="evenodd" clip-rule="evenodd" fill="#009DE1" d="M225.417,281.255c-0.982,1.101-2.204,2.07-2.889,3.333
		c-0.964,1.773-0.214,3.599,0.667,5.258c0.887,1.673,2.497,2.826,3.272,4.617c1.781,4.106,1.125,6.864-2.53,10.015
		c-1.677-1.599-1.248-3.823-1.691-5.78c-1.866-8.247-4.517-16.174-9.153-23.337c-0.452-0.697-1.24-1.557-0.213-2.469
		c2.682-0.639,5.065-2.467,8.022-2.006c2.574,2.021,3.76,4.937,4.98,7.815C226.26,279.588,226.007,280.481,225.417,281.255z"/>
	<path fill-rule="evenodd" clip-rule="evenodd" fill="#48B9EB" d="M117.603,353.612c-12.053-10.442-18.589-23.59-19.097-39.561
		c-0.481-15.137,4.983-28.079,15.241-39.028c2.32-2.476,5.182-4.445,7.793-6.647c1.243-0.917,2.647-0.545,4.01-0.502
		c0.375,1.216-0.747,1.244-1.343,1.676c-3.837,2.782-7.683,5.554-10.678,9.294c-0.211,0.589-0.732,0.937-1.098,1.411
		c-0.688,0.479-1.08,1.179-1.415,1.922c-0.833,0.897-1.41,1.98-2.096,2.985c-0.844,0.75-1.14,1.839-1.702,2.761
		c-6.34,11.791-8.098,24.133-4.783,37.194c2.366,9.326,6.925,17.3,13.866,23.947c0.892,0.853,1.951,1.644,2.165,3.01
		C118.18,352.586,117.891,353.1,117.603,353.612z"/>
	<path fill-rule="evenodd" clip-rule="evenodd" fill="#0081BF" d="M26.703,365.08c0.373-1.983,0.744-3.967,1.117-5.951
		c1.425-0.734,1.965,0.275,2.456,1.284c1.17,2.405,2.093,4.921,3.235,7.338c3.939,8.343,8.718,16.174,14.324,23.502
		c1.261,1.65,2.562,3.288,2.503,5.538c0.165,1.53-0.324,2.968-0.61,4.435c-1.442,1.057-2.173-0.25-2.885-1.014
		c-2.329-2.501-4.334-5.273-6.313-8.056c-4.991-7.01-9.184-14.48-12.873-22.249C26.912,368.338,26.875,366.717,26.703,365.08z"/>
	<path fill-rule="evenodd" clip-rule="evenodd" fill="#007292" d="M61.938,444.404c-0.001-1.998-0.002-3.998-0.003-5.998
		c1.515-1.141,2.506,0.201,3.517,0.863c7.602,4.982,15.42,9.566,23.78,13.172c1.215,0.523,1.976,1.436,2.644,2.49
		c0,1.672-0.001,3.344-0.001,5.014c-0.87,1.064-1.935,0.799-2.96,0.363c-8.84-3.74-17.272-8.246-25.297-13.516
		C62.705,446.195,62.293,445.344,61.938,444.404z"/>
	<path fill-rule="evenodd" clip-rule="evenodd" fill="#8FD3F4" d="M177.734,297.337c4.128,7.511,5.2,15.379,2.891,23.69
		c-3.697,13.306-18.329,23.05-31.902,21.204c-0.825-0.112-1.662-0.126-2.493-0.186c0.22-1.005,0.929-1.717,1.504-2.507
		c0.934-0.91,2.081-0.819,3.267-0.802c12.394,0.183,23.124-7.975,26.2-19.866c1.267-4.893,1.065-9.731-0.568-14.501
		c-0.557-1.627-1.028-3.252-0.94-4.992C176.374,298.698,177.054,298.018,177.734,297.337z"/>
	<path fill-rule="evenodd" clip-rule="evenodd" fill="#2BAEE7" d="M114.061,361.671c-6.188-5.648-12.1-11.518-16.169-18.985
		c-4.094-7.514-6.579-15.501-7.437-24.013c-1.588-15.755,2.581-29.923,11.687-42.751c0.336-0.472,0.572-1.015,0.854-1.525
		c1.001-0.386,2.001-0.772,3.003-1.159c0.816,0.99-0.108,1.742-0.549,2.289c-6.375,7.902-10.268,16.942-12.058,26.849
		c-1.083,5.993-0.928,12.065-0.229,18.15c1.247,10.859,5.687,20.326,12.21,28.899c2.183,2.87,4.439,5.73,7.485,7.821
		c0.99,0.681,1.817,1.595,2.097,2.853C114.656,360.623,114.359,361.147,114.061,361.671z"/>
	<path fill-rule="evenodd" clip-rule="evenodd" fill="#6BC6F0" d="M122.118,344.079c-4.786-4.037-7.838-9.352-10.283-14.925
		c-2.39-5.448-3.59-11.289-3.314-17.32c0.353-7.683,2.11-14.817,6.301-21.534c2.9-4.649,6.492-8.481,10.493-11.921
		c6.028-5.182,13.32-8.268,21.188-8.776c9.61-0.622,19.212,0.066,27.656,5.698c0.042,0.553,0.276,1.149-0.361,1.543
		c-7.196-4.093-14.862-6.357-23.212-6.045c-9.331,0.348-17.62,3.473-24.925,9.257c-1.374,1.089-2.734,2.193-4.102,3.29
		c-2.809,4.008-6.054,7.745-7.917,12.348c-1.631,4.033-2.677,8.188-3.222,12.556c-1.429,11.442,2.106,21.283,8.763,30.352
		c1.115,1.52,3,2.453,3.437,4.474C122.534,343.45,122.577,343.89,122.118,344.079z"/>
	<path fill-rule="evenodd" clip-rule="evenodd" fill="#006464" d="M165.794,492.066c8.237-0.596,16.424-1.525,24.476-3.449
		c16.083-3.84,31.612-9.164,46.187-17.074c0.967-0.523,1.958-0.941,3.065-1.029c-1.331,1.523-2.304,3.365-4.031,4.533
		c-3.049,0.387-5.556,2.156-8.253,3.379c-17.767,8.059-36.333,13.117-55.723,15.172c-1.902,0.201-3.813,0.32-5.721,0.479
		C165.794,493.406,165.794,492.736,165.794,492.066z"/>
	<path fill-rule="evenodd" clip-rule="evenodd" fill="#006566" d="M146.066,490.061c0.066,1.516,0.767,2.961,0.5,4.516
		c-0.73,1.117-1.859,1.289-3.048,1.232c-10.178-0.49-20.267-1.648-30.214-3.939c-1.113-0.256-1.634-0.998-2.2-1.801
		c0-1.506,0-3.012,0-4.516c0.68-1.117,1.722-0.824,2.684-0.633c8.18,1.635,16.401,2.963,24.727,3.621
		c1.579,0.123,3.155,0.26,4.739,0.291C144.367,488.854,145.406,489.014,146.066,490.061z"/>
	<path fill-rule="evenodd" clip-rule="evenodd" fill="#94D4F5" d="M175.693,299.379c4.332,7.234,4.664,14.884,1.893,22.633
		c-3.787,10.596-14.169,17.838-25.382,17.99c-1.487,0.02-2.979-0.301-4.469-0.463c0.454-0.842,0.909-1.686,1.363-2.529
		c0.91-0.787,1.991-1.146,3.167-1.132c11.388,0.138,19.981-8.036,22.438-17.394c1.234-4.703,0.699-9.396-0.608-14.007
		c-0.315-1.108-0.467-2.106,0.128-3.128C174.712,300.693,175.203,300.036,175.693,299.379z"/>
	<path fill-rule="evenodd" clip-rule="evenodd" fill="#0083C7" d="M50.338,396.792c-8.549-10.878-15.923-22.454-20.999-35.395
		c-0.338-0.861-0.815-1.645-1.52-2.268c0.501-2.009,1.002-4.019,1.504-6.028c0.76,0.719,1.046,1.688,1.395,2.629
		c4.347,11.742,10.107,22.732,17.512,32.842c0.886,1.21,1.755,2.454,3.145,3.173C51.279,393.479,51.05,395.186,50.338,396.792z"/>
	<path fill-rule="evenodd" clip-rule="evenodd" fill="#005E52" d="M166.295,501.098c10.654-1.471,21.349-2.666,31.79-5.428
		c5.652-1.496,11.193-3.32,16.732-5.166c1.346-0.449,2.687-0.922,4.133-0.924c-3.516,2.885-7.39,5.182-11.541,7.023
		c-11.423,4.949-23.588,6.641-35.798,8.105c-1.68,0.201-3.531,0.66-4.815-1.1C166.63,502.771,166.463,501.934,166.295,501.098z"/>
	<path fill-rule="evenodd" clip-rule="evenodd" fill="#0079A8" d="M25.309,389.742c0-2.678,0-5.355,0-8.032
		c1.272-0.964,1.753,0.029,2.255,0.924c4.333,7.716,9.369,14.946,15.038,21.738c1.842,2.205,3.954,4.207,5.12,6.912
		c-0.334,1.672-0.669,3.344-1.004,5.015c-0.889,1.212-1.723,0.679-2.467-0.132c-6.384-6.962-12.49-14.147-17.507-22.187
		C25.94,392.692,25.801,391.15,25.309,389.742z"/>
	<path fill-rule="evenodd" clip-rule="evenodd" fill="#0079A8" d="M62.44,430.855c0.167-1.504,0.334-3.008,0.5-4.512
		c1.276-1.443,2.298-0.25,3.233,0.416c4.482,3.195,9.002,6.332,13.774,9.082c3.538,2.037,7.085,4.068,10.811,5.754
		c1.125,0.51,2.067,1.17,2.622,2.301c-0.378,1.326-0.237,2.781-1.006,4.01c-0.822,1.219-1.904,0.824-2.885,0.361
		c-8.815-4.164-17.29-8.91-25.137-14.732C63.382,432.813,63.178,431.672,62.44,430.855z"/>
	<path fill-rule="evenodd" clip-rule="evenodd" fill="#30B0E8" d="M114.955,360.099c-11.682-9.312-19.301-21.263-22.015-35.922
		c-3.221-17.395,0.244-33.508,10.919-47.856c0.747-1.002,1.428-2.055,2.139-3.083c0.775-0.475,1.58-0.858,2.518-0.847
		c0.927,1.027-0.135,1.469-0.616,2.072c-6.029,7.57-10.665,15.833-12.641,25.418c-3.237,15.715-0.903,30.404,7.851,44.017
		c2.974,4.624,6.478,8.707,10.542,12.362c0.73,0.656,1.625,1.232,1.803,2.336C115.29,359.096,115.123,359.598,114.955,360.099z"/>
	<path fill-rule="evenodd" clip-rule="evenodd" fill="#0081BF" d="M94.994,431.914c-0.223,1.328,0.394,2.762-0.5,4.008
		c-1.012,0.492-1.921,0.16-2.853-0.289c-9.076-4.361-17.473-9.785-25.32-16.086c-0.946-0.76-1.129-1.914-1.874-2.74
		c0.49-1.301,0.119-2.785,0.863-4.03c0.944-1.138,1.826-1.062,2.949-0.108c7.535,6.393,15.76,11.754,24.577,16.211
		C94.064,429.5,95.252,430.207,94.994,431.914z"/>
	<path fill-rule="evenodd" clip-rule="evenodd" fill="#9FD9F6" d="M133.122,324.544c-2.037-4.257-3.269-8.616-3.094-13.469
		c0.344-9.549,8.281-18.673,17.765-20.234c4.086-0.672,7.958-0.212,11.818,1.035c-0.334,0.942-1.114,1.471-1.867,2.027
		c-1.072,1.104-2.392,0.885-3.716,0.717c-10.165-1.298-18.634,6.298-19.86,14.675c-0.358,2.441-0.416,4.805,0.113,7.171
		c0.373,1.669,0.814,3.316,0.884,5.033C134.396,322.457,134.331,323.885,133.122,324.544z"/>
	<path fill-rule="evenodd" clip-rule="evenodd" fill="#0079A8" d="M112.615,455.439c-0.044-1.365-0.372-2.764,0.5-4.014
		c0.655-0.994,1.573-1.004,2.604-0.746c6.792,1.686,13.645,3.027,20.613,3.762c2.561,0.271,5.144,0.326,7.689,0.766
		c0.891,0.152,1.86,0.139,2.189,1.258c-0.05,1.33-0.099,2.66-0.149,3.99c-1.175,1.709-2.983,1.338-4.568,1.193
		c-8.706-0.801-17.355-1.982-25.833-4.217C114.401,457.1,113.336,456.553,112.615,455.439z"/>
	<path fill-rule="evenodd" clip-rule="evenodd" fill="#00759B" d="M91.875,454.932c-10.699-4.205-20.505-10.031-29.941-16.525
		c-0.173-1.543-0.118-3.061,0.503-4.518c0.817-0.766,1.594-0.578,2.421,0.029c7.634,5.611,15.869,10.199,24.405,14.264
		c1.103,0.525,1.936,1.266,2.611,2.238C91.875,451.924,91.875,453.428,91.875,454.932z"/>
	<path fill-rule="evenodd" clip-rule="evenodd" fill="#006E83" d="M91.374,463.461c0,1.34,0,2.68,0,4.018
		c-0.702,1.016-1.558,1.262-2.748,0.775c-8.865-3.611-17.37-7.914-25.461-13.035c-0.88-0.559-1.069-1.588-1.731-2.283
		c0-1.666,0-3.33,0-4.996c1.181-1.117,2.129-0.223,3.089,0.379c5.865,3.666,11.876,7.064,18.116,10.059
		c2.027,0.973,4.129,1.775,6.139,2.791C89.867,461.719,90.802,462.361,91.374,463.461z"/>
	<path fill-rule="evenodd" clip-rule="evenodd" fill="#007393" d="M26.813,411.32c-0.54-2.989-1.008-5.986-1.004-9.037
		c1.052-0.871,1.634-0.131,2.209,0.642c4.869,6.534,10.081,12.775,15.872,18.517c0.956,0.949,1.217,2.244,1.825,3.363
		c0.253,2.115-0.291,4.111-0.894,6.098c-1.06,0.361-1.734-0.275-2.391-0.936c-4.519-4.537-9.303-8.824-13.286-13.872
		C28.036,414.688,27.448,412.982,26.813,411.32z"/>
	<path fill-rule="evenodd" clip-rule="evenodd" fill="#006C7C" d="M145.562,479.02c0,1.338,0,2.676,0.001,4.016
		c-0.725,1.158-1.888,1.301-3.075,1.225c-9.567-0.623-19.061-1.777-28.399-4.023c-1.05-0.252-1.818-0.908-2.48-1.717
		c0.167-1.338,0.333-2.676,0.5-4.014c1.048-1.311,2.433-0.889,3.698-0.607c6.356,1.414,12.774,2.4,19.245,3.1
		c2.649,0.287,5.325,0.27,7.96,0.748C144.018,477.928,144.969,478.074,145.562,479.02z"/>
	<path fill-rule="evenodd" clip-rule="evenodd" fill="#53BDED" d="M196.375,331.034c-0.458-1.151,0.246-2.1,0.555-3.112
		c4.635-15.172,2.952-29.427-6.178-42.601c0.533-1.067,1.6-1.469,2.537-2.034c1.417,0.778,2.093,2.173,2.837,3.486
		c3.07,5.413,5.301,11.155,6.34,17.299c0.957,5.658,0.952,11.337-0.096,17.005c-0.239,1.295-0.82,2.394-1.512,3.467
		C200.272,327.335,197.998,328.959,196.375,331.034z"/>
	<path fill-rule="evenodd" clip-rule="evenodd" fill="#00759B" d="M112.615,461.982c-0.001-1.344-0.001-2.688-0.002-4.031
		c0.684-1.111,1.723-0.84,2.673-0.598c6.445,1.635,12.965,2.859,19.573,3.6c2.717,0.305,5.434,0.629,8.166,0.791
		c1.044,0.063,2.22-0.098,2.684,1.244c-0.048,1.328-0.098,2.658-0.148,3.99c-0.734,1.125-1.87,1.303-3.066,1.229
		c-9.437-0.586-18.764-1.889-27.917-4.313C113.567,463.629,112.66,463.244,112.615,461.982z"/>
	<path fill-rule="evenodd" clip-rule="evenodd" fill="#5FC2EF" d="M174.663,273.312c-7.373-3.85-15.148-6.245-23.531-5.993
		c-10.612,0.32-20.2,3.706-28.301,10.632c-10.475,8.956-16.012,20.556-16.186,34.245c-0.153,12.154,4.343,22.842,12.641,31.836
		c0.621,0.673,1.202,1.386,1.8,2.08c-0.051,0.377-0.025,0.79-0.471,0.976c-6.425-5.754-10.979-12.669-13.103-21.095
		c-2.496-8.315-2.585-16.68-0.501-25.087l0,0c0.596-2.031,1.186-4.065,2.006-6.021v0.001c0.876-2.071,1.818-4.108,3.011-6.022v0.001
		c0.646-1.021,1.226-2.083,2.006-3.012c0.502-0.67,1.002-1.337,1.504-2.006c0.555-0.929,1.456-1.58,2.008-2.51
		c0.836-1.17,1.839-2.174,3.01-3.01c1.142-0.67,1.87-1.837,3.012-2.508h-0.001c0.711-0.447,1.299-1.057,2.007-1.505l0,0
		c3.005-2,6.229-3.588,9.534-5.017l0,0c4.311-0.898,8.51-2.229,12.947-2.656c7.401-0.713,14.398,0.696,21.269,3.217
		c0.933,0.343,1.886,0.631,2.83,0.945C172.832,271.797,174.541,271.76,174.663,273.312z"/>
	<path fill-rule="evenodd" clip-rule="evenodd" fill="#00676E" d="M146.066,490.061c-11.85,0.016-23.46-1.822-34.961-4.508
		c0-1.174,0-2.348,0.001-3.521c0.845-1.334,2.092-1.111,3.337-0.838c6.989,1.529,14.059,2.531,21.161,3.35
		c2.476,0.285,4.988,0.068,7.438,0.674c0.975,0.242,1.939,0.395,2.521,1.33C146.26,487.643,146.151,488.854,146.066,490.061z"/>
	<path fill-rule="evenodd" clip-rule="evenodd" fill="#006E84" d="M145.562,479.02c-10.119-0.375-20.132-1.574-30.008-3.848
		c-1.139-0.262-2.296-0.445-3.444-0.666c0.168-1.336,0.335-2.674,0.502-4.01c0.884-1.563,2.27-0.787,3.359-0.549
		c5.967,1.309,11.972,2.357,18.043,3.012c2.823,0.303,5.644,0.658,8.481,0.801c1.177,0.061,2.348,0.088,3.068,1.246
		C145.563,476.346,145.563,477.684,145.562,479.02z"/>
	<path fill-rule="evenodd" clip-rule="evenodd" fill="#007DB5" d="M25.31,376.192c0.087-2.178-0.616-4.415,0.501-6.514
		c1.714-0.84,1.748,0.806,2.132,1.589c4.597,9.364,10.072,18.171,16.528,26.367c1.029,1.305,2.08,2.594,3.106,3.902
		c0.869,1.11,1.429,2.324,1.257,3.781c0.083,1.195-0.187,2.327-0.612,3.432c-1.244,1.002-1.751-0.137-2.404-0.832
		c-5.694-6.045-10.5-12.768-14.94-19.758C28.502,384.422,26.059,380.695,25.31,376.192z"/>
	<path fill-rule="evenodd" clip-rule="evenodd" fill="#007BAF" d="M257.031,407.775c0.507-1.678,1.916-2.699,2.992-3.928
		c3.784-4.317,6.895-9.141,10.472-13.61c0,1.005-0.001,2.01-0.001,3.014c-2.609,4.594-5.991,8.633-9.387,12.625
		c-8.75,10.285-18.824,19.094-30.109,26.535c-17.09,11.268-35.749,18.508-55.909,21.855c-2.705,0.447-5.449,1.428-8.284,0.672
		c-0.001-0.334-0.002-0.668-0.002-1.002c2.717-1.041,5.637-0.936,8.45-1.402c12.836-2.133,25.081-6.061,36.856-11.531
		c11.32-5.262,21.74-11.961,31.303-19.959C248.276,416.975,252.849,412.568,257.031,407.775z"/>
	<path fill-rule="evenodd" clip-rule="evenodd" fill="#0083C7" d="M94.994,431.914c-0.735-0.971-1.811-1.447-2.854-1.967
		c-8.695-4.322-16.758-9.613-24.2-15.848c-0.787-0.658-1.59-1.203-2.629-1.323c0.155-1.545,0.407-3.069,1-4.517
		c7.351,5.915,14.737,11.775,23.119,16.225c1.989,1.057,3.926,2.219,6.098,2.885C95.213,428.867,95.959,430.492,94.994,431.914z"/>
	<path fill-rule="evenodd" clip-rule="evenodd" fill="#00759B" d="M45.715,424.805c-6.901-6.162-12.792-13.228-18.349-20.588
		c-0.499-0.66-1.037-1.289-1.557-1.934c0.18-2.532-0.853-4.983-0.5-7.527c1.435-1.065,1.917,0.258,2.49,1.068
		c3.368,4.759,6.853,9.424,10.617,13.882c1.612,1.909,3.382,3.671,4.994,5.583c1.173,1.393,2.192,2.799,2.805,4.502
		C46.554,421.514,45.634,423.109,45.715,424.805z"/>
	<path fill-rule="evenodd" clip-rule="evenodd" fill="#99D6F5" d="M174.223,301.35c1.623,4.423,2.953,8.902,2.34,13.701
		c-1.766,13.809-13.188,23.401-27.465,21.96c0.123-1.063,0.981-1.685,1.505-2.508c0.792-0.613,1.621-1.116,2.668-1.171
		c11.964-0.625,21.37-11.358,19.005-25.016c-0.289-1.664-0.305-3.3-0.062-4.954C172.884,302.69,173.553,302.021,174.223,301.35z"/>
	<path fill-rule="evenodd" clip-rule="evenodd" fill="#005C4B" d="M166.797,503.609c12.508-0.486,24.639-3.164,36.68-6.346
		c1.296-0.344,2.576-0.705,3.933-0.66c-5.696,4.244-12.387,6.121-19.067,8.027c-5.699,2.725-11.919,2.852-18.012,3.617
		c-1.2,0.152-2.254-0.119-3.031-1.125C166.918,505.982,166.604,504.832,166.797,503.609z"/>
	<path fill-rule="evenodd" clip-rule="evenodd" fill="#006C7C" d="M61.434,452.936c6.689,3.697,13.199,7.738,20.191,10.861
		c3.17,1.418,6.208,3.23,9.749,3.682c0,1.338,0.001,2.676,0.001,4.014c-0.717,1.205-1.727,1.035-2.816,0.629
		c-2.573-0.957-5.119-1.99-7.578-3.201c-5.294-2.605-10.641-5.111-15.744-8.092c-1.499-0.875-2.961-1.77-3.802-3.375
		C61.434,455.947,61.434,454.441,61.434,452.936z"/>
	<path fill-rule="evenodd" clip-rule="evenodd" fill="#006975" d="M61.434,457.453c4.638,2.416,9.273,4.834,13.916,7.244
		c4.134,2.146,8.332,4.156,12.686,5.818c1.08,0.412,2.224,0.656,3.339,0.977c0,1.338,0,2.678,0,4.014
		c-0.587,0.865-1.274,1.131-2.338,0.723c-8.961-3.453-17.619-7.523-25.851-12.484c-0.905-0.545-1.085-1.584-1.753-2.275
		C61.433,460.129,61.434,458.791,61.434,457.453z"/>
	<path fill-rule="evenodd" clip-rule="evenodd" fill="#007FB9" d="M48.833,405.318c-0.76-1.828-2.322-3.04-3.526-4.522
		c-7.778-9.575-14.343-19.903-19.497-31.118c-0.226-1.634,0.168-3.148,0.892-4.598c4.335,8.753,8.552,17.576,14.337,25.51
		c2.698,3.704,5.167,7.602,8.688,10.636C49.311,402.564,49.575,404.051,48.833,405.318z"/>
	<path fill-rule="evenodd" clip-rule="evenodd" fill="#34B2E9" d="M115.457,358.595c-11.673-9.382-18.978-21.448-21.369-36.203
		c-2.879-17.762,1.603-33.711,12.907-47.731c0.57-0.707,1.017-1.512,1.522-2.271c0.923-0.562,1.915-0.922,2.999-1.004
		c-4.312,4.783-8.224,9.855-11.109,15.646c-10.91,21.898-6.549,48.648,10.772,65.927c1.518,1.515,2.772,3.38,4.921,4.164
		C115.885,357.613,115.671,358.104,115.457,358.595z"/>
	<path fill-rule="evenodd" clip-rule="evenodd" fill="#00625F" d="M111.104,490.068c11.677,2.641,23.478,4.289,35.462,4.508
		c0.41,1.133,0.633,2.299,0.641,3.506c-0.365,1.113-1.291,1.201-2.226,1.145c-10.506-0.646-20.996-1.414-31.287-3.836
		c-1.179-0.277-1.882-0.988-2.59-1.814C111.104,492.406,111.104,491.236,111.104,490.068z"/>
	<path fill-rule="evenodd" clip-rule="evenodd" fill="#006974" d="M145.563,486.547c-10.352-0.531-20.622-1.691-30.757-3.934
		c-1.217-0.27-2.466-0.391-3.7-0.582c-0.221-1.225,0.38-2.334,0.503-3.512c7.625,1.447,15.219,3.105,22.974,3.754
		c3.655,0.307,7.293,0.895,10.98,0.762C145.563,484.205,145.563,485.377,145.563,486.547z"/>
	<path fill-rule="evenodd" clip-rule="evenodd" fill="#9FD9F6" d="M172.214,303.361c6.229,15.924-4.819,32.492-21.611,31.141
		c0.154-1.21,0.948-2.066,1.647-2.976c2.22-1.301,4.86-1.36,7.156-2.486c7.63-3.74,11.426-10.509,10.495-19.047
		c-0.155-1.42-0.218-2.782,0.307-4.127C170.877,305.031,171.545,304.196,172.214,303.361z"/>
	<path fill-rule="evenodd" clip-rule="evenodd" fill="#00676E" d="M61.433,461.469c8.455,4.621,16.912,9.24,25.933,12.703
		c1.314,0.504,2.672,0.893,4.009,1.334c0,1.172,0.001,2.344,0.001,3.516c-0.709,1.02-1.565,1.229-2.763,0.771
		c-8.733-3.334-17.181-7.262-25.28-11.939c-0.956-0.553-1.429-1.438-1.9-2.352C61.433,464.156,61.433,462.813,61.433,461.469z"/>
	<path fill-rule="evenodd" clip-rule="evenodd" fill="#00708B" d="M91.374,463.461c-9.691-3.543-18.646-8.531-27.379-13.951
		c-0.851-0.527-1.707-1.047-2.56-1.57c-0.076-1.213-0.247-2.439,0.504-3.535c7.177,4.258,14.234,8.725,21.839,12.215
		c2.654,1.221,5.273,2.523,8.098,3.326C91.708,461.117,91.541,462.289,91.374,463.461z"/>
	<path fill-rule="evenodd" clip-rule="evenodd" fill="#006057" d="M111.104,493.576c11.885,2.703,23.962,3.852,36.103,4.506
		c0.289,1.006,0.577,2.014,0.866,3.02c-1.531,1.893-3.667,1.309-5.558,1.164c-9.146-0.701-18.277-1.563-27.277-3.447
		c-1.358-0.285-2.732-0.502-3.632-1.732C111.226,495.947,110.909,494.799,111.104,493.576z"/>
	<path fill-rule="evenodd" clip-rule="evenodd" fill="#006362" d="M91.879,482.531c0.168,1.33,0.335,2.66,0.502,3.99
		c-1.05,0.98-2.186,0.541-3.273,0.141c-8.344-3.082-16.461-6.672-24.334-10.818c-1.468-0.771-2.53-1.906-3.343-3.316
		c0-1.178,0.001-2.354,0.001-3.529c0.771-1.146,1.685-0.734,2.605-0.238c7.982,4.283,16.07,8.342,24.601,11.443
		C89.967,480.686,90.758,481.816,91.879,482.531z"/>
	<path fill-rule="evenodd" clip-rule="evenodd" fill="#4DBBEC" d="M112.028,279.832c0.333-0.334,0.667-0.669,1.002-1.003
		c0.335-0.316,0.671-0.336,1.006,0.001c-2.727,4.289-5.814,8.316-8.042,12.955c-9.347,19.452-3.623,45.477,13.11,58.821
		c-0.211,0.488-0.423,0.978-0.636,1.468c-11.822-10.132-17.837-23.119-18.406-38.542c-0.315-8.548,1.901-16.687,5.603-24.393
		c0.316-0.657,0.89-1.189,1.343-1.78c0.632-0.758,0.876-1.75,1.507-2.509c0.668-1.004,1.337-2.006,2.006-3.01
		C110.973,281.133,111.576,280.539,112.028,279.832z"/>
	<path fill-rule="evenodd" clip-rule="evenodd" fill="#00708A" d="M145.563,475.006c-11.183-0.053-22.114-1.939-32.952-4.51
		c-0.729-1.084-0.591-2.291-0.503-3.49c2.634-0.932,5.049,0.416,7.5,0.873c7.337,1.367,14.655,2.674,22.153,2.811
		c1.256,0.021,2.865-0.061,3.802,1.307C145.564,473,145.563,474.004,145.563,475.006z"/>
	<path fill-rule="evenodd" clip-rule="evenodd" fill="#008CD2" d="M257.556,320.029c-0.107-4.172,0.412-8.345-0.025-12.518
		c2.084-0.026,4.169-0.077,6.254-0.075c2.503,0.002,4.5,1.729,4.771,4.069c0.311,2.71-1.301,5.351-3.66,5.968
		C262.379,318.129,259.559,317.903,257.556,320.029z"/>
	<path fill-rule="evenodd" clip-rule="evenodd" fill="#007395" d="M112.615,461.982c10.774,3.027,21.761,4.66,32.945,4.996
		c0.001,1.002,0.001,2.008,0.002,3.012c-0.534,0.602-1.064,0.82-1.999,0.814c-10.125-0.064-19.959-2.152-29.795-4.191
		c-0.46-0.096-1.421-0.313-1.655-1.141C112.039,464.275,111.841,463.059,112.615,461.982z"/>
	<path fill-rule="evenodd" clip-rule="evenodd" fill="#007FB9" d="M64.447,416.807c1.876,0.793,3.277,2.258,4.861,3.463
		c6.97,5.307,14.321,10.004,22.186,13.881c1.038,0.512,2.002,1.176,3,1.771c-0.177,0.994,0.304,2.094-0.48,2.992
		c-0.875,0.785-1.693,0.293-2.529-0.098c-8.401-3.932-16.25-8.791-23.723-14.26c-1.531-1.121-2.998-2.406-3.819-4.221
		C63.613,419.088,64.391,417.998,64.447,416.807z"/>
	<path fill-rule="evenodd" clip-rule="evenodd" fill="#007BAE" d="M166.804,454.939c14.4-1.465,28.243-5.09,41.539-10.791
		c13.139-5.635,25.103-13.186,36.108-22.291c9.193-7.605,17.048-16.43,23.964-26.123c0.625-0.875,1.382-1.657,2.078-2.483
		c0.001,0.661,0.001,1.322,0.001,1.983c-3.136,2.582-5.075,6.165-7.647,9.22c-11.631,13.82-25.193,25.248-41.025,33.996
		c-16.582,9.164-34.228,14.943-53.059,17.086c-0.661,0.076-1.309,0.266-1.962,0.4C166.801,455.605,166.803,455.273,166.804,454.939z
		"/>
	<path fill-rule="evenodd" clip-rule="evenodd" fill="#007DB4" d="M147.067,450.924c-0.489,0.949-0.384,1.998-0.504,3.01
		c-0.739,1.092-1.846,1.305-3.041,1.203c-9.441-0.807-18.817-2.035-27.981-4.551c-1.122-0.307-2.136-0.762-2.041-2.215
		c0.039-0.98,0.076-1.961,0.115-2.943c0.942-0.807,2.005-0.67,3.082-0.387c7.026,1.844,14.165,3.061,21.37,3.953
		c2.152,0.264,4.34-0.072,6.467,0.545C145.505,449.82,146.479,449.99,147.067,450.924z"/>
	<path fill-rule="evenodd" clip-rule="evenodd" fill="#005C4C" d="M62.936,486.559c-0.061-1.51-0.759-2.949-0.5-4.496
		c0.989-0.846,1.978-0.57,3.007-0.049c7.57,3.836,15.334,7.225,23.355,10.008c0.998,0.346,1.814,0.83,1.703,2.078
		c-2.19,1.402-4.636,1.518-7.125,1.404c-1.504,0.408-2.911,0.082-4.335-0.453c-3.981-1.496-7.782-3.398-11.688-5.061
		C65.566,489.229,64.109,488.088,62.936,486.559z"/>
	<path fill-rule="evenodd" clip-rule="evenodd" fill="#A5DBF6" d="M135.164,321.5c-3.611-4.487-3.232-13.919,0.399-19.196
		c4.853-7.052,11.522-9.864,19.943-8.699c0.745,0.103,1.491,0.198,2.237,0.297c-0.147,1.273-1.18,1.838-2.037,2.541
		c-1.448,0.21-2.845,0.597-4.341,0.664c-9.426,0.419-15.962,8.209-14.843,17.619c0.169,1.428,0.261,2.837,0.147,4.265
		C136.561,320.064,135.671,320.667,135.164,321.5z"/>
	<path fill-rule="evenodd" clip-rule="evenodd" fill="#007BAF" d="M25.31,376.192c4.482,7.688,8.909,15.406,14.376,22.471
		c2.701,3.491,5.592,6.808,8.535,10.087c0.256,0.928-0.355,1.684-0.5,2.533c-2.83-1.262-4.241-3.986-6.105-6.172
		c-5.755-6.756-10.833-14.011-15.108-21.809c-0.316-0.577-0.796-1.064-1.199-1.593C25.309,379.87,25.309,378.031,25.31,376.192z"/>
	<path fill-rule="evenodd" clip-rule="evenodd" fill="#ABDDF7" d="M136.669,318.992c-2.69-5.035-1.942-9.972,0.576-14.771
		c3.458-6.589,11.882-10.085,18.461-7.777c-0.786,0.726-0.97,1.933-1.981,2.48c-1.948,0.569-3.915,1.08-5.828,1.75
		c-5.154,1.81-8.243,5.978-8.288,11.402c-0.011,1.454-0.91,2.567-0.967,3.938C138.282,317.204,137.667,318.226,136.669,318.992z"/>
	<path fill-rule="evenodd" clip-rule="evenodd" fill="#006568" d="M91.879,482.531c-5.272-1.307-10.187-3.57-15.07-5.854
		c-5.188-2.426-10.256-5.109-15.377-7.682c0-1.164,0.001-2.33,0.001-3.494c8.514,4.555,17.042,9.08,26.114,12.465
		c1.247,0.465,2.459,1.041,3.829,1.055C91.505,480.195,91.38,481.408,91.879,482.531z"/>
	<path fill-rule="evenodd" clip-rule="evenodd" fill="#007DB3" d="M63.943,420.336c2.966,1.082,5.056,3.477,7.537,5.246
		c6.265,4.467,12.907,8.217,19.736,11.691c0.961,0.488,1.867,1.092,2.797,1.641c-0.043,0.824-0.087,1.648-0.13,2.473
		c-1.017,1.254-2.099,0.537-3.139,0.072c-6.85-3.064-13.269-6.885-19.423-11.156c-2.798-1.941-5.864-3.574-7.879-6.473
		C63.12,422.596,63.881,421.516,63.943,420.336z"/>
	<path fill-rule="evenodd" clip-rule="evenodd" fill="#0098DC" d="M225.417,281.255c-0.686-2.668-2-5.044-3.417-7.374
		c-0.563-0.924-0.965-1.912-1.098-2.997c3.48-0.257,6.941-0.081,10.39,0.43c2.631,0.388,2.62,2.678,3.104,4.488
		c0.514,1.923-0.759,3.035-2.414,3.425C229.739,279.757,227.519,280.294,225.417,281.255z"/>
	<path fill-rule="evenodd" clip-rule="evenodd" fill="#0081BE" d="M114.119,442.914c-0.153-0.906-0.089-1.77,0.501-2.525
		c0.883-1.176,1.928-0.729,3.083-0.453c8.147,1.943,16.351,3.57,24.742,4.016c1.832,0.098,3.705-0.045,5.126,1.455
		c0.305,1.082-0.251,2.02-0.504,3.01c-0.514,0.721-1.159,1.109-2.101,1.055c-9.793-0.578-19.448-2.006-28.907-4.66
		C115.047,444.527,114.162,444.162,114.119,442.914z"/>
	<path fill-rule="evenodd" clip-rule="evenodd" fill="#005A44" d="M146.065,508.621c-0.695,1.145-1.515,2.146-2.878,2.533
		c-3.85,0.943-7.742,0.699-11.627,0.354c-4.892-0.434-9.748-1.154-14.563-2.121c-1.414-0.281-2.896-0.502-3.885-1.762
		c-0.286-0.984-0.671-1.949-0.5-3.01c0.753-1.24,1.903-1.119,3.088-0.91c5.571,0.979,11.153,1.891,16.791,2.373
		c3.559,0.303,7.111,0.707,10.685,0.807C144.479,506.92,145.684,507.07,146.065,508.621z"/>
	<path fill-rule="evenodd" clip-rule="evenodd" fill="#005E52" d="M111.606,497.086c7.52,0.949,14.934,2.648,22.513,3.188
		c4.648,0.332,9.281,0.902,13.955,0.828c0.048,0.867,0.165,1.744-0.369,2.527c-1.949,1.752-4.378,1.092-6.488,0.9
		c-4.881-0.443-9.792-0.703-14.637-1.477c-4.708-0.752-9.504-1.078-14.043-2.73c-0.425-0.154-0.574-0.551-0.932-0.727
		C111.605,498.76,111.605,497.924,111.606,497.086z"/>
	<path fill-rule="evenodd" clip-rule="evenodd" fill="#11A4E4" d="M90.934,279.274c0.685-0.716,1.557-0.967,2.512-1.008
		c1.102,0.784,0.319,1.784-0.01,2.378c-8.208,14.821-9.908,30.54-6.553,46.95c0.205,0.999,0.255,1.735-0.421,2.472
		c-0.396,0.602-0.978,0.408-1.527,0.359c-2.125-2-1.838-4.775-2.264-7.288c-1.96-11.541-0.677-22.81,3.093-33.826
		C86.989,285.725,88.291,282.146,90.934,279.274z"/>
	<path fill-rule="evenodd" clip-rule="evenodd" fill="#005B49" d="M146.065,508.621c-4.604-0.805-9.295-0.662-13.912-1.26
		c-6.524-0.844-13.03-1.824-19.543-2.746c-0.293-0.982-0.67-1.949-0.502-3.008c1.517-1.705,3.284-0.465,4.782-0.172
		c7.207,1.414,14.465,2.242,21.785,2.758c2.299,0.162,4.597,0.416,6.906,0.465c0.826,0.02,1.506,0.27,1.991,0.961
		C147.069,506.619,146.566,507.619,146.065,508.621z"/>
	<path fill-rule="evenodd" clip-rule="evenodd" fill="#006E83" d="M31.331,428.852c-1.674-2.965-2.31-6.26-3.011-9.533
		c0.87-1.223,1.651-0.6,2.475,0.088c1.545,1.287,2.612,3.004,4.016,4.412c2.576,2.584,4.998,5.334,7.884,7.592
		c1.141,0.893,1.37,2.273,2.019,3.43c0.231,1.629,0.012,3.158-1.002,4.51c-1.189,0.66-2.082,0.189-3.087-0.57
		C36.945,436,34.009,432.555,31.331,428.852z"/>
	<path fill-rule="evenodd" clip-rule="evenodd" fill="#0BA2E3" d="M90.934,279.274c-1.243,3.803-3.347,7.229-4.621,11.046
		c-4.197,12.577-4.745,25.264-1.77,38.146c0.15,0.649,0.261,1.306,0.39,1.958c-0.507,0.168-1.016,0.335-1.523,0.503
		c-2.123-1.703-1.894-4.338-2.255-6.56c-2.275-13.952-0.586-27.473,5.042-40.471c0.519-1.202,1.162-2.315,2.231-3.123
		C89.247,280.246,89.88,279.409,90.934,279.274z"/>
	<path fill-rule="evenodd" clip-rule="evenodd" fill="#16A6E4" d="M86.46,330.066c-0.87-5.758-2.114-11.442-2.079-17.341
		c0.067-11.503,2.867-22.252,8.128-32.419c0.343-0.665,0.626-1.36,0.936-2.04c0.77-0.496,1.586-0.856,2.524-0.859
		c0.931,0.896,0.256,1.704-0.196,2.454c-4.522,7.513-7.209,15.7-8.475,24.307c-1.12,7.614-0.527,15.212,1.268,22.717
		c0.234,0.98,1.17,2.191-0.142,3.181C87.771,330.066,87.115,330.066,86.46,330.066z"/>
	<path fill-rule="evenodd" clip-rule="evenodd" fill="#59BFEE" d="M138.703,357.604c4.5,0.708,8.914,1.656,13.568,1.603
		c10.507-0.118,19.752-3.463,28.11-9.615c0.875-0.644,1.663-1.404,2.81-1.523c-0.529,1.531-1.597,2.725-2.508,4.016
		c-4.926,5.14-11.366,7.086-18.021,8.683c-7.463,1.789-14.859,1.755-22.287-0.163c-0.997-0.256-1.866-0.368-2.174-1.486
		C137.985,358.487,138.451,358.08,138.703,357.604z"/>
	<path fill-rule="evenodd" clip-rule="evenodd" fill="#007BAE" d="M63.442,423.83c1.481,0.199,2.565,1.137,3.71,1.973
		c8.37,6.121,17.073,11.672,26.731,15.584c-0.168,0.836-0.336,1.674-0.503,2.51c-6.222-2.084-11.748-5.537-17.281-8.934
		c-4.467-2.744-8.779-5.736-13.159-8.619C63.107,425.506,63.275,424.668,63.442,423.83z"/>
	<path fill-rule="evenodd" clip-rule="evenodd" fill="#006056" d="M61.934,479.033c0-1.004,0-2.008,0-3.01
		c0.762-1.156,1.71-0.75,2.614-0.268c8.364,4.461,17.065,8.154,25.951,11.428c0.937,0.346,1.519,0.965,1.882,1.85
		c0.093,0.896-0.014,1.752-0.502,2.531c-0.896,1.145-1.996,0.852-3.123,0.459c-5.713-1.996-11.315-4.275-16.789-6.85
		c-2.446-1.152-4.933-2.23-7.291-3.58C63.527,480.936,62.612,480.139,61.934,479.033z"/>
	<path fill-rule="evenodd" clip-rule="evenodd" fill="#0CA2E3" d="M88.53,345.075c0.322-1.218,1.188-2.1,1.899-3.079
		c2.067,0.533,2.23,2.646,3.025,4.046c4.242,7.479,9.811,13.754,16.416,19.177c0.936,0.769,1.954,1.512,1.681,2.974
		c-0.232,0.875-0.408,1.773-1,2.506c-2.696-1.043-4.559-3.17-6.647-5.027c-5.936-5.28-10.83-11.369-14.656-18.335
		C88.843,346.598,88.493,345.918,88.53,345.075z"/>
	<path fill-rule="evenodd" clip-rule="evenodd" fill="#0077A2" d="M46.215,419.791c-7.319-6.859-13.436-14.728-19.209-22.886
		c-0.526-0.744-1.129-1.434-1.697-2.149c0-1.671,0-3.343,0-5.015c4.597,6.761,9.114,13.592,14.614,19.671
		c2.159,2.386,3.953,5.163,6.794,6.885C46.551,417.461,46.383,418.625,46.215,419.791z"/>
	<path fill-rule="evenodd" clip-rule="evenodd" fill="#00708B" d="M44.713,434.84c-4.813-3.971-9.325-8.244-13.319-13.055
		c-0.845-1.016-1.758-2.008-3.074-2.467c-0.668-2.635-1.398-5.256-1.506-7.998c4.765,6.205,10.306,11.693,15.854,17.174
		c0.765,0.754,1.438,1.604,2.153,2.408C44.785,432.215,44.75,433.527,44.713,434.84z"/>
	<path fill-rule="evenodd" clip-rule="evenodd" fill="#0077A2" d="M91.875,450.42c-4.806-1.457-9.055-4.102-13.465-6.389
		c-5.614-2.912-10.717-6.652-15.972-10.143c0.001-1.012,0.002-2.021,0.002-3.033c6.011,4.07,11.986,8.199,18.398,11.631
		c3.748,2.006,7.42,4.193,11.537,5.42C92.608,448.824,92.027,449.58,91.875,450.42z"/>
	<path fill-rule="evenodd" clip-rule="evenodd" fill="#007FB9" d="M114.119,442.914c9.139,2.715,18.454,4.439,27.977,5.021
		c1.66,0.1,3.313,0.316,4.97,0.48c0,0.836,0.001,1.672,0.001,2.508c-11.343-0.66-22.547-2.168-33.452-5.496
		C113.472,444.527,113.518,443.666,114.119,442.914z"/>
	<path fill-rule="evenodd" clip-rule="evenodd" fill="#007BAF" d="M113.501,448.371c4.285,1.977,8.937,2.576,13.496,3.426
		c6.457,1.201,12.988,1.932,19.566,2.137c0.028,0.863,0.316,1.764-0.353,2.531c-9.951-0.428-19.765-1.805-29.432-4.221
		c-1.214-0.303-2.442-0.547-3.664-0.818C113.12,450.393,112.721,449.307,113.501,448.371z"/>
	<path fill-rule="evenodd" clip-rule="evenodd" fill="#0077A2" d="M145.708,462.988c-11.254-0.217-22.248-2.146-33.095-5.037
		c0.001-0.838,0.001-1.676,0.002-2.512c9.051,2.205,18.161,4.082,27.477,4.756c1.986,0.143,3.979,0.176,5.97,0.26
		C146.097,461.32,146.347,462.217,145.708,462.988z"/>
	<path fill-rule="evenodd" clip-rule="evenodd" fill="#2FAFE8" d="M171.652,368.139c-0.452,0.841-0.904,1.683-1.356,2.523
		c-1.916,2.145-4.719,2.24-7.179,2.668c-4.418,0.771-8.931,1.44-13.434,1.068c-5.016-0.415-10.045-0.932-14.881-2.502
		c-0.685-0.222-1.345-0.485-1.617-1.248c0.287-0.676,0.575-1.352,0.862-2.028c2.048-1.088,3.838,0.245,5.732,0.608
		c8.02,1.542,16.033,1.626,24.049-0.066c1.849-0.389,3.662-0.885,5.473-1.409C170.136,367.512,171.011,367.146,171.652,368.139z"/>
	<path fill-rule="evenodd" clip-rule="evenodd" fill="#00615B" d="M92.381,489.033c-9.579-3.139-18.825-7.053-27.704-11.832
		c-0.874-0.471-1.827-0.789-2.744-1.178c-0.168-1.166-0.336-2.33-0.504-3.496c9.876,5.643,20.263,10.15,30.951,13.994
		C92.381,487.359,92.381,488.197,92.381,489.033z"/>
	<path fill-rule="evenodd" clip-rule="evenodd" fill="#007CB0" d="M257.031,407.775c-0.254,0.82-0.756,1.475-1.339,2.088
		c-23.482,24.713-52.203,39.191-85.891,43.953c-0.987,0.141-2,0.086-3,0.121c0-0.176,0.001-0.352,0.002-0.525
		c3.461-0.543,6.938-1.004,10.381-1.646c25.023-4.662,47.267-15.24,66.67-31.689C248.434,416.195,252.649,411.888,257.031,407.775z"
		/>
	<path fill-rule="evenodd" clip-rule="evenodd" fill="#1CA9E5" d="M168.283,374.683c-0.038,0.955-0.291,1.824-1.004,2.509
		c-2.351,2.426-5.515,1.946-8.423,2.322c-7.967,1.028-15.823,0.314-23.567-1.718c-1.51-0.396-3.365-0.224-4.111-2.131
		c0.287-0.676,0.575-1.353,0.862-2.028c0.882-0.904,2.051-0.549,2.909-0.295c10.307,3.052,20.648,3.312,31.095,0.782
		C166.643,373.98,167.777,373.584,168.283,374.683z"/>
	<path fill-rule="evenodd" clip-rule="evenodd" fill="#005637" d="M68.316,501.619c-1.161-2.254-2.376-4.484-2.867-7.012
		c0.676-0.768,1.449-0.594,2.26-0.254c3.437,1.447,6.85,2.947,10.288,4.389c1.21,0.508,1.873,1.6,2.843,2.354
		c1.125,1.855,1.929,3.818,2.007,6.023c-0.671,0.547-1.548,0.705-2.25,0.451C76.3,506.018,71.72,505.018,68.316,501.619z"/>
	<path fill-rule="evenodd" clip-rule="evenodd" fill="#1EA9E6" d="M217.949,308.458c-0.381,0.889-1.339,1.008-2.01,1.509
		c-1.559,0.09-1.207-1.06-1.308-1.962c-1.09-9.767-3.828-19.001-8.762-27.559c-0.729-1.266-2.489-2.259-1.544-4.18
		c0.555-0.561,1.233-0.875,2.005-1.002c2.391,1.153,3.155,3.591,4.271,5.665c4.251,7.897,7.054,16.256,7.604,25.288
		C218.254,307.01,218.15,307.724,217.949,308.458z"/>
	<path fill-rule="evenodd" clip-rule="evenodd" fill="#0BA2E3" d="M217.874,332.96c0.838-0.838,1.675-1.674,2.511-2.511
		c1.41,0.841,0.429,1.902,0.171,2.796c-2.023,7.017-5.129,13.544-9.226,19.576c-4.6,6.778-10.343,12.495-16.824,17.466
		c-0.485,0.373-1.222,1.458-2.117,0.36c0.787-1.343,1.573-2.685,2.36-4.028c4.675-5.257,10.138-9.801,13.911-15.876
		c2.653-4.272,5.28-8.516,6.787-13.365C215.948,335.77,217.075,334.44,217.874,332.96z"/>
	<path fill-rule="evenodd" clip-rule="evenodd" fill="#A5DBF6" d="M170.208,305.867c1.99,7.088,1.378,13.767-3.751,19.376
		c-3.743,4.094-8.261,6.93-14.207,6.284c0.309-0.779,0.487-1.644,1.366-2.042c1.121-1.201,2.554-1.878,4.041-2.508
		c6.338-2.686,9.654-7.468,9.81-14.377c0.032-1.451,0.357-2.837,0.734-4.222C168.982,307.631,169.193,306.427,170.208,305.867z"/>
	<path fill-rule="evenodd" clip-rule="evenodd" fill="#1DA9E5" d="M92.405,337.007c3.083,6.329,6.596,12.387,11.215,17.745
		c2.901,3.366,6.099,6.405,9.831,8.85c-0.288,0.683-0.575,1.367-0.863,2.05c-0.838,0.903-1.663,0.45-2.372-0.124
		c-6.391-5.162-11.868-11.148-16.027-18.255c-1.313-2.245-3.228-4.336-2.757-7.285C91.468,338.9,91.824,337.917,92.405,337.007z"/>
	<path fill-rule="evenodd" clip-rule="evenodd" fill="#005E51" d="M61.934,479.033c7.696,3.611,15.266,7.512,23.27,10.438
		c2.194,0.801,4.353,1.705,6.675,2.094c-0.092,1.045-0.536,1.898-1.378,2.535c-9.546-3.564-18.877-7.635-28.065-12.037
		C62.154,481.072,61.759,480.1,61.934,479.033z"/>
	<path fill-rule="evenodd" clip-rule="evenodd" fill="#53BDED" d="M138.202,359.118c13.747,4.05,26.729,2.157,39.033-5.015
		c1.151-0.671,2.299-1.346,3.449-2.02c-0.668,1.171-1.338,2.341-2.007,3.512c-4.936,4.334-11.073,5.914-17.233,7.26
		c-7.237,1.583-14.511,1.037-21.706-0.495c-0.887-0.188-2.332-0.141-2.146-1.798C137.795,360.081,137.998,359.6,138.202,359.118z"/>
	<path fill-rule="evenodd" clip-rule="evenodd" fill="#00583F" d="M113.111,507.625c6.615,0.912,13.222,1.887,19.848,2.707
		c3.391,0.42,6.817,0.557,10.228,0.822c-2.519,2.043-5.728,1.162-8.529,2.008c-1.854,1.023-3.78,1.293-5.906,0.98
		c-3.055-0.447-6.118-0.863-9.182-1.258c-2.168-0.279-4.261-0.732-5.959-2.246C113.445,509.633,113.278,508.629,113.111,507.625z"/>
	<path fill-rule="evenodd" clip-rule="evenodd" fill="#05A0E2" d="M192.39,370.648c6.559-3.904,11.625-9.446,16.239-15.353
		c4.958-6.345,8.577-13.48,10.999-21.191c0.375-1.197,0.746-2.387,0.757-3.655c0.719-0.62,0.821-1.853,2.005-2.007
		c-1.125,7.3-4.099,13.934-7.686,20.267c-5.001,8.833-11.793,16.147-19.923,22.22c-0.94,0.702-1.88,1.397-3.038,1.707
		C191.758,371.909,191.917,371.228,192.39,370.648z"/>
	<path fill-rule="evenodd" clip-rule="evenodd" fill="#005D4E" d="M147.571,505.619c-11.968-0.031-23.756-1.658-35.463-4.012
		c-0.168-0.672-0.336-1.342-0.503-2.012c7.394,1.08,14.716,2.645,22.185,3.215c4.634,0.352,9.255,0.916,13.915,0.818
		C147.661,504.293,147.615,504.955,147.571,505.619z"/>
	<path fill-rule="evenodd" clip-rule="evenodd" fill="#0082C3" d="M147.57,445.406c-9.888-0.559-19.696-1.674-29.303-4.201
		c-1.204-0.316-2.431-0.547-3.647-0.816c-0.149-0.893-0.107-1.748,0.502-2.486c2.075-1.346,4.171-0.096,5.993,0.391
		c7.839,2.092,15.756,3.328,23.856,3.572c1.217,0.037,2.693,0.25,2.708,2.088C147.642,444.438,147.606,444.922,147.57,445.406z"/>
	<path fill-rule="evenodd" clip-rule="evenodd" fill="#16A6E4" d="M131.177,375.666c11.894,3.805,23.932,4.232,36.102,1.526
		c-0.382,0.829-0.765,1.657-1.146,2.486c-2.79,1.951-6.026,1.645-9.188,2.009c-8.143,0.938-16.018-0.422-23.857-2.282
		c-0.96-0.227-2.222-0.426-2.555-1.752C130.544,376.923,130.707,376.245,131.177,375.666z"/>
	<path fill-rule="evenodd" clip-rule="evenodd" fill="#42B6EA" d="M195.261,281.815c0.504-0.336,1.007-0.672,1.511-1.008
		c1.476-0.312,2.098,0.846,2.645,1.766c4.718,7.938,7.547,16.404,8.472,25.711c0.381,3.842,0.48,7.26-1.009,10.742
		c-0.495,0.735-1.017,1.436-2.01,1.509c-1.025-0.461-0.742-1.458-0.661-2.151c1.44-12.468-1.413-23.889-8.182-34.404
		C195.635,283.367,195.173,282.657,195.261,281.815z"/>
	<path fill-rule="evenodd" clip-rule="evenodd" fill="#005431" d="M116.123,519.174c-0.501-1.676-1.003-3.35-1.503-5.023
		c0.512-1.172,1.475-1.084,2.501-0.943c4.112,0.555,8.187,1.355,12.318,1.77c1.035,0.105,1.735,0.533,1.704,1.701
		c-0.848,1.41-0.407,3-0.633,4.498c-0.584,0.73-1.229,1.104-2.275,0.992c-2.545-0.273-5.082-0.615-7.625-0.91
		C118.885,521.061,117.337,520.473,116.123,519.174z"/>
	<path fill-rule="evenodd" clip-rule="evenodd" fill="#0EA3E3" d="M130.534,377.653c6.654,2.074,13.503,3.151,20.431,3.392
		c5.075,0.177,10.131-0.676,15.168-1.367c-0.335,0.671-0.669,1.341-1.003,2.011c-1.974,2.239-4.727,1.677-7.225,1.974
		c-6.648,0.792-13.225,0.164-19.776-1.042c-2.126-0.39-4.214-0.902-6.267-1.554c-0.955-0.304-1.947-0.682-2.189-1.874
		C129.959,378.679,130.247,378.166,130.534,377.653z"/>
	<path fill-rule="evenodd" clip-rule="evenodd" fill="#06A0E2" d="M88.429,280.774c-5.319,10.843-7.948,22.29-7.479,34.374
		c0.208,5.337,0.827,10.646,2.459,15.779c-0.489,0.048-0.978,0.095-1.466,0.143c-4.167-15.658-3.076-30.972,2.982-45.969
		c0.373-0.923,0.664-1.88,0.993-2.822C86.737,281.747,87.377,280.917,88.429,280.774z"/>
	<path fill-rule="evenodd" clip-rule="evenodd" fill="#0083C8" d="M147.678,443.953c-3.309-1.877-7.03-0.949-10.539-1.48
		c-7.432-1.121-14.815-2.379-22.018-4.57c-0.186-0.766,0.056-1.422,0.501-2.027c10.639,2.814,21.348,5.176,32.447,5.014
		C148.063,441.928,148.495,443.02,147.678,443.953z"/>
	<path fill-rule="evenodd" clip-rule="evenodd" fill="#06A0E2" d="M129.672,379.192c11.582,4.217,23.423,4.72,35.458,2.496
		c0.111,1.015-0.601,1.699-1.003,2.507c-2.748,0.194-5.497,0.377-8.243,0.587c-9.209,0.705-18.142-0.623-26.849-3.625
		C129.248,380.502,129.459,379.847,129.672,379.192z"/>
	<path fill-rule="evenodd" clip-rule="evenodd" fill="#18A7E5" d="M196.752,362.609c4.167-7.895,9.098-15.294,14.628-22.291
		c1.069-1.353,1.915-2.937,3.484-3.848c1.305,0.667,0.534,1.719,0.229,2.395c-3.166,7.043-6.864,13.746-12.356,19.325
		c-1.348,1.369-2.356,3.063-3.994,4.175C198.094,362.809,197.527,363.411,196.752,362.609z"/>
	<path fill-rule="evenodd" clip-rule="evenodd" fill="#47B9EB" d="M136.194,363.634c-0.21-0.629,0.247-1.038,0.502-1.513
		c2.438-0.732,4.635,0.558,6.938,0.89c10.744,1.553,21.002,0.155,30.823-4.524c0.769-0.366,1.645-1.54,2.714-0.381
		c-0.225,1.001-0.927,1.718-1.505,2.508c-3.82,3.631-8.833,4.313-13.643,5.316c-7.809,1.63-15.631,1.219-23.372-0.625
		C137.694,365.076,136.477,364.973,136.194,363.634z"/>
	<path fill-rule="evenodd" clip-rule="evenodd" fill="#ABDDF7" d="M168.201,308.378c2.369,8.958-2.467,17.555-11.446,20.317
		c-1.03,0.316-2.091,0.529-3.138,0.79c0.414-1.602,1.32-2.896,2.507-4.014c5.434-3.17,8.278-8.1,9.569-14.083
		C166.566,310.417,166.945,309.033,168.201,308.378z"/>
	<path fill-rule="evenodd" clip-rule="evenodd" fill="#3CB4EA" d="M174.31,363.137c-0.174,1.207-0.964,2.073-1.655,2.994
		c-4.367,2.645-9.314,3.198-14.211,3.896c-6.587,0.94-13.115,0.234-19.574-1.051c-1.439-0.286-3.156-0.408-4.18-1.839
		c0.412-0.635,0.217-1.534,0.891-2.058c2.521-0.471,4.859,0.58,7.236,1.022c9.795,1.831,19.248,0.488,28.545-2.649
		C172.366,363.114,173.223,362.343,174.31,363.137z"/>
	<path fill-rule="evenodd" clip-rule="evenodd" fill="#00573D" d="M169.673,515.168c-1.026-1.332-1.37-2.895-1.508-4.523
		c0.296-0.977,1.129-1.131,1.963-1.268c4.117-0.666,8.259-1.148,12.4-1.631c0.823-0.098,1.502-0.014,1.809,0.889
		c-0.66,1.613-0.523,3.33-0.641,5.014c-0.818,1.193-2.143,1.393-3.398,1.635c-2.586,0.5-5.225,0.631-7.835,0.967
		C171.318,516.398,170.448,515.928,169.673,515.168z"/>
	<path fill-rule="evenodd" clip-rule="evenodd" fill="#47B9EB" d="M195.261,281.815c2.938,2.776,4.367,6.475,5.937,10.04
		c4.042,9.179,4.972,18.796,3.673,28.68c-0.492,0.491-0.983,0.981-1.476,1.473c-1.555-0.085-0.865-1.059-0.777-1.861
		c0.735-6.656,0.605-13.244-1.09-19.794c-1.433-5.537-3.634-10.685-6.702-15.493c-0.454-0.713-1.278-1.43-0.511-2.435
		C194.631,282.221,194.946,282.018,195.261,281.815z"/>
	<path fill-rule="evenodd" clip-rule="evenodd" fill="#42B7EA" d="M174.31,363.137c-10.973,4.647-22.298,5.793-33.97,3.381
		c-1.624-0.336-3.278-0.612-4.76-1.439c0.205-0.48,0.409-0.962,0.614-1.444c12.553,3.887,24.854,3.121,36.925-1.982
		c0.844-0.357,1.698-0.693,2.546-1.039C175.214,361.455,174.762,362.297,174.31,363.137z"/>
	<path fill-rule="evenodd" clip-rule="evenodd" fill="#005A44" d="M62.936,486.559c6.814,2.982,13.627,5.965,20.441,8.945
		c-0.845,0.854-1.689,1.705-2.534,2.557c-1.191,0.67-2.376,0.385-3.532-0.072c-3.455-1.369-6.833-2.912-10.227-4.424
		c-1.185-0.527-1.908-1.592-2.778-2.482C63.472,489.689,63.248,488.111,62.936,486.559z"/>
	<path fill-rule="evenodd" clip-rule="evenodd" fill="#3BB4EA" d="M206.88,319.026c0.009-0.666-0.172-1.407,0.059-1.985
		c1.546-3.891,0.2-7.744-0.246-11.542c-0.972-8.302-3.832-16-8.458-23c-0.407-0.617-0.971-1.129-1.463-1.69
		c0.502-0.333,1.002-0.667,1.504-1.002c1.07-0.172,1.573,0.452,2.129,1.272c4.941,7.282,7.723,15.399,8.945,24.019
		c0.531,3.739,0.868,7.589,0.07,11.389C208.574,317.332,207.727,318.179,206.88,319.026z"/>
	<path fill-rule="evenodd" clip-rule="evenodd" fill="#11A4E4" d="M196.752,362.609c3.793-1.956,5.945-5.561,8.478-8.713
		c4.2-5.229,7.618-10.957,9.635-17.425c0.421-1.669,1.876-2.451,3.008-3.511c-1.522,6.677-4.721,12.592-8.443,18.24
		c-3.496,5.304-7.752,9.964-12.584,14.087c-0.625,0.533-1.395,0.893-2.097,1.333C195.2,365.175,195.857,363.833,196.752,362.609z"/>
	<path fill-rule="evenodd" clip-rule="evenodd" fill="#15A6E4" d="M91.431,339.988c4.418,9.631,10.801,17.729,19.049,24.364
		c0.638,0.513,1.402,0.87,2.107,1.3c-0.345,0.847-0.691,1.693-1.036,2.541c-3.01-3.12-6.661-5.542-9.539-8.807
		c-4.65-5.274-8.901-10.809-11.583-17.391C90.526,341.208,90.86,340.539,91.431,339.988z"/>
	<path fill-rule="evenodd" clip-rule="evenodd" fill="#6CC7F1" d="M122.622,343.075c-12.696-11.313-16.741-32.234-9.231-47.879
		c2.099-4.374,4.375-8.64,8.17-11.851c-0.489,3.096-3.098,4.876-4.646,7.306c-3.592,5.638-5.185,11.788-6.029,18.313
		c-1.512,11.688,2.899,21.433,9.567,30.496c0.729,0.993,1.752,1.769,2.638,2.644C123.045,342.48,123.074,342.895,122.622,343.075z"
		/>
	<path fill-rule="evenodd" clip-rule="evenodd" fill="#36B2E9" d="M209.42,316.485c-0.763-1.491-0.544-3.105-0.549-4.68
		c-0.036-10.918-3.289-20.874-8.99-30.093c-0.432-0.698-1.065-1.273-1.605-1.907c0.503-0.333,1.005-0.668,1.507-1.002
		c2.285,0.223,2.678,2.346,3.559,3.802c4.125,6.814,6.668,14.282,7.571,22.14c0.378,3.281,1.61,6.774-0.043,10.127
		C210.234,315.272,210.23,316.242,209.42,316.485z"/>
	<path fill-rule="evenodd" clip-rule="evenodd" fill="#005A45" d="M184.337,508.635c-5.357,0.938-10.734,1.713-16.172,2.01
		c-0.542-1.111-0.851-2.281-0.867-3.521c5.821-0.34,11.58-1.18,17.327-2.127c1.226-0.203,2.477-0.248,3.717-0.365
		C186.735,505.693,185.381,507.008,184.337,508.635z"/>
	<path fill-rule="evenodd" clip-rule="evenodd" fill="#1EA9E6" d="M88.426,330.067c-3.872-14.484-3.053-28.701,2.618-42.575
		c1.413-3.455,3.271-6.728,4.926-10.085c0.667-0.219,1.334-0.438,2-0.658c0.328,1.394-0.72,2.295-1.308,3.291
		c-4.438,7.516-7.194,15.595-8.279,24.243c-1.073,8.563-0.549,17.034,1.651,25.383c0.184,0.695,0.667,1.305-0.103,1.907
		C89.431,331.072,88.928,330.569,88.426,330.067z"/>
	<path fill-rule="evenodd" clip-rule="evenodd" fill="#35B2E9" d="M134.69,367.137c4.897,1.028,9.777,2.217,14.796,2.454
		c6.74,0.318,13.303-0.811,19.753-2.719c1.114-0.331,2.277-0.499,3.417-0.741c-0.335,0.669-0.669,1.339-1.003,2.008
		c-6.127,1.546-12.224,3.049-18.645,3.08c-6.479,0.031-12.759-0.869-18.961-2.599C134.261,368.125,134.476,367.631,134.69,367.137z"
		/>
	<path fill-rule="evenodd" clip-rule="evenodd" fill="#005739" d="M131.143,516.678c-5.508-0.844-11.016-1.686-16.523-2.527
		c-0.336-1.172-0.672-2.342-1.008-3.512c5.191,0.727,10.377,1.492,15.574,2.166c1.808,0.234,3.647,0.244,5.472,0.357
		C133.486,514.334,132.314,515.506,131.143,516.678z"/>
	<path fill-rule="evenodd" clip-rule="evenodd" fill="#005027" d="M116.123,519.174c4.796,0.666,9.591,1.334,14.387,2.002
		c0.402,1.49,1.01,2.936,1.004,4.516c-4.509-0.5-9.018-1-13.528-1.5C117.365,522.52,116.744,520.846,116.123,519.174z"/>
	<path fill-rule="evenodd" clip-rule="evenodd" fill="#1EA9E6" d="M89.933,331.573c-3.527-12.971-3.623-25.905,0.417-38.795
		c1.787-5.701,4.436-10.993,7.621-16.028c0.198-0.433,0.625-0.397,0.992-0.487c-0.1,1.303-0.815,2.35-1.445,3.425
		c-9.086,15.521-11.378,31.994-6.986,49.425c0.281,1.117,0.274,2.306,0.402,3.462C90.6,332.241,90.266,331.907,89.933,331.573z"/>
	<path fill-rule="evenodd" clip-rule="evenodd" fill="#24ABE6" d="M204.325,276.266c4.963,7.821,8.597,16.175,10.252,25.339
		c0.501,2.78,0.395,5.659,1.362,8.362c-0.679,0.512-1.357,1.023-2.036,1.535c-1.711-0.661-1.04-2.258-1.119-3.371
		c-0.724-10.274-4.037-19.66-9.425-28.368c-0.482-0.778-1.026-1.505-1.072-2.463C202.844,276.713,203.541,276.405,204.325,276.266z"
		/>
	<path fill-rule="evenodd" clip-rule="evenodd" fill="#23ABE6" d="M168.283,374.683c-4.657,0.9-9.307,1.81-14.071,1.995
		c-7.575,0.292-14.92-1.012-22.172-3.041c0.214-0.495,0.429-0.989,0.643-1.483c0.842-1.019,1.887-0.436,2.747-0.192
		c10.506,2.98,21.028,3.085,31.593,0.353c0.771-0.199,1.652-0.64,2.265,0.36C169.152,373.444,168.843,374.126,168.283,374.683z"/>
	<path fill-rule="evenodd" clip-rule="evenodd" fill="#11A4E4" d="M207.863,274.397c0.492-0.213,0.985-0.425,1.477-0.638
		c1.343,0.285,1.772,1.378,2.45,2.423c5.475,8.439,8.279,17.806,9.795,27.626c0.156,1.011,0.055,2.138-0.679,3.034
		c-0.502,0.335-1.004,0.669-1.506,1.004c-1.282-0.567-1.235-1.862-1.323-2.88c-0.858-10.037-4.365-19.143-9.55-27.673
		C207.975,276.386,207.016,275.609,207.863,274.397z"/>
	<path fill-rule="evenodd" clip-rule="evenodd" fill="#4DBBEC" d="M194.316,282.424c2.009,3.833,4.542,7.375,5.97,11.532
		c2.687,7.827,4.323,15.751,3.134,24.077c-0.185,1.296-0.44,2.648-0.025,3.975c-0.845,0.846-1.691,1.691-2.537,2.538
		c3.388-14.11,0.945-27.228-6.702-39.466c-0.35-0.56-0.581-1.193-0.868-1.792C193.522,282.87,193.778,282.479,194.316,282.424z"/>
	<path fill-rule="evenodd" clip-rule="evenodd" fill="#17A7E4" d="M207.863,274.397c3.744,6.136,7.008,12.482,8.965,19.454
		c1.29,4.595,2.022,9.275,2.572,13.997c-0.484,0.204-0.967,0.407-1.451,0.61c-0.842-1.627-0.566-3.438-0.801-5.16
		c-1.393-10.208-5.32-19.42-10.818-28.035C206.84,274.975,207.351,274.686,207.863,274.397z"/>
	<path fill-rule="evenodd" clip-rule="evenodd" fill="#2AAEE7" d="M202.287,277.299c4.167,4.729,6.447,10.455,8.467,16.288
		c2.004,5.79,2.701,11.837,3.149,17.915c-0.502,0.502-1.004,1.003-1.505,1.505c-1.723-0.988-1.205-2.823-1.255-4.188
		c-0.375-10.332-3.692-19.646-9.219-28.276c-0.481-0.751-1.146-1.594-0.57-2.634C201.664,277.706,201.976,277.502,202.287,277.299z"
		/>
	<path fill-rule="evenodd" clip-rule="evenodd" fill="#0CA2E3" d="M220.906,306.843c-0.956-12.042-4.829-23.063-11.566-33.084
		c0.53-0.729,1.349-0.311,2.012-0.507c2.801,2.65,4.153,6.174,5.747,9.548c2.929,6.203,4.819,12.715,5.855,19.492
		c0.196,1.285,0.251,2.458-0.543,3.549C221.909,306.174,221.407,306.509,220.906,306.843z"/>
	<path fill-rule="evenodd" clip-rule="evenodd" fill="#B1DFF7" d="M138.643,316.015c-1.531-9.277,2.934-15.444,11.175-17.278
		c1.335-0.297,2.628-0.344,3.908,0.188c-0.834,0.834-1.67,1.67-2.504,2.504c-5.011,2.406-8.97,5.742-10.176,11.512
		C140.319,314.023,139.67,315.168,138.643,316.015z"/>
	<path fill-rule="evenodd" clip-rule="evenodd" fill="#4DBBEC" d="M177.171,358.105c-5.11,2.236-10.222,4.537-15.778,5.377
		c-8.306,1.254-16.577,1.122-24.697-1.362c0.297-0.52,0.596-1.04,0.894-1.56c5.437,2.201,11.137,2.55,16.901,2.331
		c8.69-0.33,16.58-3.35,24.184-7.297C178.175,356.432,177.673,357.269,177.171,358.105z"/>
	<path fill-rule="evenodd" clip-rule="evenodd" fill="#007290" d="M112.114,465.473c5.773,0.93,11.419,2.498,17.232,3.27
		c5.392,0.717,10.769,1.352,16.216,1.248c0,0.67,0.001,1.338,0.002,2.006c-11.288-0.754-22.494-2.047-33.456-4.99
		C112.11,466.494,112.112,465.984,112.114,465.473z"/>
	<path fill-rule="evenodd" clip-rule="evenodd" fill="#31B0E8" d="M201.353,277.909c5.348,8.323,9.08,17.249,10.313,27.145
		c0.331,2.647-0.107,5.358,0.731,7.954c-0.509,0.621-1.018,1.243-1.526,1.864c-0.174-11.5-2.467-22.447-8.517-32.398
		c-0.774-1.273-1.71-2.449-2.571-3.671C200.306,278.504,200.83,278.207,201.353,277.909z"/>
	<path fill-rule="evenodd" clip-rule="evenodd" fill="#00532E" d="M68.316,501.619c4.843,1.832,9.688,3.666,14.531,5.5
		c-2.846,3.789-6.511,4.078-9.879,0.857C71.03,506.123,69.314,504.143,68.316,501.619z"/>
	<path fill-rule="evenodd" clip-rule="evenodd" fill="#005128" d="M185.335,519.645c1.185,1.098,1.885,2.418,1.874,4.064
		c-1.825,2.252-6.688,2.979-10.011,1.494c-1.691-1.131-3.307-2.346-4.515-4.021c0.508-1.357,1.813-1.443,2.903-1.588
		c2.394-0.316,4.79-0.645,7.2-0.861C183.832,518.639,184.582,519.074,185.335,519.645z"/>
	<path fill-rule="evenodd" clip-rule="evenodd" fill="#29ADE7" d="M169.288,372.674c-4.277,0.721-8.492,1.692-12.843,2.1
		c-6.852,0.643-13.479-0.296-20.094-1.807c-1.221-0.278-2.446-0.542-3.668-0.813c-0.205-0.625,0.252-1.031,0.502-1.505
		c12.368,3.751,24.739,3.983,37.111,0.014C170.155,371.432,169.849,372.118,169.288,372.674z"/>
	<path fill-rule="evenodd" clip-rule="evenodd" fill="#00583E" d="M64.307,491.082c5.512,2.326,11.024,4.652,16.537,6.979
		c-0.423,1.012-0.453,2.023-0.003,3.035c-5.297-1.766-10.365-4.076-15.391-6.488C64.859,493.5,64.477,492.326,64.307,491.082z"/>
	<path fill-rule="evenodd" clip-rule="evenodd" fill="#006C7C" d="M31.331,428.852c1.473,0.516,2.384,1.732,3.429,2.771
		c2.804,2.785,5.556,5.629,8.951,7.727c-2.348,3.158-3.931,3.279-6.375,0.328C34.666,436.453,32.616,432.857,31.331,428.852z"/>
	<path fill-rule="evenodd" clip-rule="evenodd" fill="#06A0E2" d="M222.41,305.84c-0.262-8.242-2.817-15.89-6.202-23.288
		c-1.454-3.176-3.228-6.205-4.857-9.301c0.396-0.604,0.98-0.408,1.529-0.36c1.529,3.791,4.03,7.069,5.557,10.886
		c2.676,6.691,4.658,13.537,5.501,20.7C223.545,305.063,223.155,305.65,222.41,305.84z"/>
	<path fill-rule="evenodd" clip-rule="evenodd" fill="#05A0E2" d="M88.53,345.075c2.446,3.676,4.54,7.583,7.324,11.038
		c3.782,4.693,8.013,8.93,12.711,12.705c0.708,0.57,1.327,1.252,1.986,1.882c-0.053,0.377-0.04,0.785-0.473,0.976
		c-8.547-6.213-15.609-13.779-20.877-22.968c-0.494-0.862-0.855-1.8-1.278-2.702C88.125,345.695,88.328,345.385,88.53,345.075z"/>
	<path fill-rule="evenodd" clip-rule="evenodd" fill="#B1DFF7" d="M165.692,311.388c1.123,6.292-3.672,13.35-9.569,14.083
		c1.583-3.906,4.552-6.916,6.764-10.417C163.705,313.759,164.75,312.606,165.692,311.388z"/>
	<path fill-rule="evenodd" clip-rule="evenodd" fill="#00532F" d="M185.335,519.645c-4.218,0.512-8.435,1.025-12.652,1.537
		c-0.729-0.939-1.474-1.871-1.867-3.02c0.711-1.396,2.098-1.541,3.388-1.678c2.06-0.219,4.113-0.488,6.16-0.777
		c1.45-0.205,2.722-0.043,3.833,0.953C184.576,517.654,184.955,518.648,185.335,519.645z"/>
	<path fill-rule="evenodd" clip-rule="evenodd" fill="#005535" d="M184.197,516.66c-4.46,0.5-8.921,1-13.381,1.502
		c-0.569-0.926-1.062-1.881-1.142-2.994c4.673-0.508,9.348-1.014,14.022-1.52C183.863,514.652,184.03,515.656,184.197,516.66z"/>
	<path fill-rule="evenodd" clip-rule="evenodd" fill="#B7E1F8" d="M141.045,312.941c-1.031-5.582,3.6-10.821,10.176-11.512
		C147.771,305.215,143.926,308.651,141.045,312.941z"/>
	<path fill-rule="evenodd" clip-rule="evenodd" fill="#004F20" d="M177.198,525.203c3.358-0.357,6.713-0.725,10.011-1.494
		c-0.205,2.373-1.86,3.744-3.798,4.33C180.746,528.844,178.643,527.533,177.198,525.203z"/>
	<path fill-rule="evenodd" clip-rule="evenodd" fill="#4DBBEC" d="M114.036,278.83c-0.335,0-0.671-0.001-1.006-0.001
		c2.432-4.218,6.572-6.594,10.238-9.479c0.71-0.557,1.519-0.987,2.283-1.476c1.199,0.007,2.268-0.901,3.522-0.502
		C123.675,270.685,118.586,274.404,114.036,278.83z"/>
	<path fill-rule="evenodd" clip-rule="evenodd" fill="#5EC2EF" d="M107.011,300.906c-0.088,3.092-0.949,6.083-1.051,9.192
		c-0.178,5.385,0.474,10.652,1.553,15.896c-1.189-1.994-1.356-4.264-1.74-6.474C104.677,313.217,104.905,306.998,107.011,300.906z"
		/>
	<path fill-rule="evenodd" clip-rule="evenodd" fill="#5EC2EF" d="M135.108,269.296c-3.061,1.896-6.261,3.525-9.534,5.017
		C128.323,271.826,131.566,270.278,135.108,269.296z"/>
	<path fill-rule="evenodd" clip-rule="evenodd" fill="#5EC2EF" d="M112.028,288.864c-0.713,2.152-1.692,4.172-3.011,6.022
		C109.474,292.605,110.386,290.553,112.028,288.864z"/>
	<path fill-rule="evenodd" clip-rule="evenodd" fill="#5EC2EF" d="M109.017,294.885c-0.359,2.111-0.98,4.134-2.006,6.021
		C107.206,298.742,107.749,296.693,109.017,294.885z"/>
	<path fill-rule="evenodd" clip-rule="evenodd" fill="#5EC2EF" d="M123.568,275.819c-0.787,1.097-1.66,2.09-3.012,2.508
		C121.344,277.233,122.216,276.238,123.568,275.819z"/>
	<path fill-rule="evenodd" clip-rule="evenodd" fill="#5EC2EF" d="M114.034,285.853c-0.389,1.19-1.037,2.208-2.006,3.012
		C112.327,287.615,112.952,286.581,114.034,285.853z"/>
	<path fill-rule="evenodd" clip-rule="evenodd" fill="#5EC2EF" d="M117.546,281.337c-0.325,1.113-1.078,1.882-2.008,2.51
		C115.865,282.736,116.619,281.967,117.546,281.337z"/>
	<path fill-rule="evenodd" clip-rule="evenodd" fill="#5EC2EF" d="M125.574,274.313c-0.495,0.733-1.147,1.258-2.007,1.505
		C124.063,275.086,124.715,274.563,125.574,274.313z"/>
	<path fill-rule="evenodd" clip-rule="evenodd" fill="#4DBBEC" d="M108.515,284.85c-0.239,0.995-0.68,1.868-1.507,2.509
		C107.25,286.366,107.691,285.493,108.515,284.85z"/>
	<path fill-rule="evenodd" clip-rule="evenodd" fill="#4DBBEC" d="M112.028,279.832c-0.248,0.861-0.773,1.513-1.507,2.008
		C110.77,280.981,111.295,280.329,112.028,279.832z"/>
</g>
</svg>
